<?xml version="1.0" encoding="UTF-8" ?>
<!DOCTYPE svg PUBLIC "-//W3C//DTD SVG 1.1//EN" "http://www.w3.org/Graphics/SVG/1.1/DTD/svg11.dtd">
<svg width="771pt" height="703pt" viewBox="0 0 771 703" version="1.1" xmlns="http://www.w3.org/2000/svg">
<g id="#ffffffff">
</g>
<g id="#958c6dff">
<path fill="#958c6d" opacity="1.00" d=" M 332.91 19.17 C 345.20 16.60 357.84 17.43 370.26 18.39 C 377.49 18.52 384.68 19.17 391.90 19.49 C 391.65 25.37 391.71 31.29 390.71 37.10 C 389.65 43.52 389.59 50.05 388.44 56.46 C 378.31 55.87 368.13 54.94 357.99 56.06 C 340.95 56.79 323.90 58.53 307.23 62.21 C 293.07 64.97 278.68 66.43 264.55 69.37 C 254.91 72.09 245.14 74.37 235.66 77.63 C 228.45 80.12 220.95 81.80 213.96 84.91 C 201.12 90.60 189.53 98.99 176.03 103.21 C 168.45 105.56 160.91 108.09 153.29 110.32 C 145.64 112.72 139.01 117.39 131.85 120.85 C 127.29 113.69 120.93 107.78 117.05 100.19 C 128.55 94.94 139.73 88.97 151.62 84.61 C 160.94 81.29 170.28 77.99 179.46 74.28 C 191.25 68.88 203.34 64.15 215.36 59.28 C 226.94 54.52 236.15 45.51 247.71 40.72 C 257.29 36.90 267.54 34.53 277.88 34.35 C 287.05 33.53 296.32 32.43 305.01 29.24 C 314.38 26.09 323.26 21.48 332.91 19.17 Z" />
<path fill="#958c6d" opacity="1.00" d=" M 445.22 28.16 C 455.09 30.60 464.91 33.92 473.39 39.66 C 481.14 44.75 486.40 52.57 492.80 59.12 C 501.13 69.83 513.75 75.64 524.39 83.62 C 535.68 93.69 543.73 106.79 550.96 119.93 C 554.73 126.42 558.30 133.06 560.86 140.13 C 563.64 147.89 566.92 155.50 568.83 163.54 C 570.76 171.16 574.20 178.32 575.75 186.04 C 577.25 193.96 579.05 201.81 580.69 209.70 C 583.29 221.14 588.64 231.66 593.41 242.30 C 597.31 252.87 598.73 264.15 600.92 275.16 C 601.76 281.51 602.96 287.81 604.18 294.10 C 605.70 301.98 605.47 310.05 605.20 318.04 C 604.89 325.10 602.27 331.85 602.30 338.95 C 602.07 344.17 602.94 349.36 604.28 354.39 C 608.35 374.85 607.51 396.23 602.12 416.36 C 600.19 426.86 597.27 437.20 592.90 446.96 C 587.02 459.50 581.87 472.38 575.11 484.50 C 568.86 483.99 561.66 483.86 556.98 479.03 C 554.22 475.69 555.07 470.98 554.56 466.99 C 554.45 463.94 552.60 461.29 552.41 458.28 C 557.46 450.09 564.31 442.82 567.37 433.52 C 570.78 424.48 572.26 414.92 574.60 405.60 C 577.30 391.90 577.20 377.79 575.57 363.96 C 575.32 357.97 574.57 352.00 574.68 345.99 C 575.07 334.48 577.29 323.05 576.37 311.50 C 571.25 311.97 566.11 311.12 561.02 311.83 C 556.42 312.17 551.83 311.41 547.23 311.71 C 547.20 320.20 549.20 328.50 549.72 336.95 C 551.04 347.57 550.75 358.31 550.56 369.00 C 550.09 380.01 547.32 390.74 545.32 401.54 C 542.31 415.78 539.05 430.24 532.19 443.20 C 528.13 443.96 523.77 443.86 519.70 443.15 C 516.54 440.78 513.17 436.78 514.88 432.58 C 520.45 414.08 526.73 395.55 527.92 376.12 C 528.76 368.35 528.81 360.44 530.90 352.86 C 533.02 345.04 535.21 337.14 535.58 329.00 C 536.06 319.63 532.90 310.64 530.31 301.77 C 529.48 298.78 528.12 295.96 526.17 293.55 C 527.13 289.54 528.10 285.29 526.67 281.26 C 525.51 277.49 522.83 274.46 520.26 271.57 C 521.13 272.04 522.01 272.51 522.89 272.97 C 522.01 262.30 520.69 251.64 518.97 241.07 C 514.36 221.13 503.08 203.70 495.24 185.00 C 494.23 182.60 493.19 180.21 492.23 177.80 C 489.15 169.98 486.04 161.93 480.53 155.45 C 470.85 143.79 459.61 133.49 447.20 124.79 C 438.41 118.69 428.00 115.57 417.67 113.19 C 411.44 111.44 405.10 110.12 398.87 108.41 C 401.13 102.87 406.14 99.30 409.50 94.51 C 411.17 92.17 412.13 89.44 413.25 86.82 C 419.86 90.43 425.78 95.22 432.62 98.44 C 445.84 105.15 460.88 108.19 473.01 117.00 C 487.37 129.63 497.87 145.82 508.53 161.51 C 515.77 171.96 522.68 182.77 527.07 194.77 C 530.90 204.23 532.78 214.30 535.89 223.99 C 540.94 238.60 539.29 254.22 539.61 269.38 C 537.84 270.84 534.63 271.94 535.30 274.79 C 535.51 278.71 540.50 278.42 543.23 279.49 C 543.02 286.02 542.68 292.55 542.30 299.07 C 542.67 303.85 534.39 304.38 536.31 309.50 C 537.02 312.45 540.51 312.20 542.85 311.93 C 548.51 311.16 554.23 310.99 559.93 310.80 C 569.59 309.87 579.26 311.83 588.91 310.64 C 588.96 308.86 589.11 307.08 588.92 305.31 C 587.26 303.30 584.86 302.15 582.71 300.76 C 583.46 291.90 585.27 281.91 579.94 274.06 C 576.77 269.25 570.33 268.56 565.23 270.22 C 562.67 259.40 561.76 248.25 558.97 237.47 C 556.50 226.68 553.80 215.87 549.31 205.71 C 546.10 198.02 542.17 190.65 539.18 182.86 C 534.76 170.11 533.89 156.25 527.99 143.99 C 523.44 134.95 515.37 128.56 507.62 122.38 C 499.85 115.18 492.18 107.78 485.47 99.55 C 477.22 88.60 465.41 81.07 453.66 74.37 C 445.28 69.31 436.33 65.23 427.03 62.18 C 432.74 50.66 437.17 38.36 445.22 28.16 Z" />
<path fill="#958c6d" opacity="1.00" d=" M 342.41 77.79 C 357.30 74.68 372.53 77.23 387.53 78.02 C 385.25 86.90 377.03 92.39 374.02 100.93 C 365.68 100.14 357.36 98.79 348.96 99.45 C 336.91 100.49 325.05 103.12 313.05 104.49 C 300.35 105.51 287.72 102.53 275.03 103.81 C 259.64 105.00 246.00 112.89 232.24 119.17 C 217.84 125.46 201.84 127.39 187.92 134.88 C 178.67 139.86 170.64 146.74 162.96 153.83 C 157.86 148.54 151.21 144.77 146.89 138.77 C 156.92 131.14 167.86 124.83 179.00 118.98 C 188.58 113.95 199.02 110.80 209.52 108.32 C 215.57 106.96 221.37 104.69 227.40 103.27 C 242.18 99.87 257.74 100.26 272.11 95.08 C 283.35 91.57 294.25 86.88 305.83 84.50 C 317.98 82.06 330.17 79.76 342.41 77.79 Z" />
<path fill="#958c6d" opacity="1.00" d=" M 341.28 108.16 C 351.68 106.58 362.27 107.79 372.61 109.28 C 372.49 116.72 372.94 124.17 372.54 131.59 C 371.75 133.02 370.05 132.14 368.83 132.05 C 362.61 130.68 356.64 128.28 350.25 127.66 C 334.94 125.29 319.36 121.73 303.83 124.33 C 292.91 126.07 281.91 127.56 271.21 130.42 C 262.14 132.56 252.86 133.73 243.84 136.16 C 235.07 138.73 226.20 141.33 218.20 145.86 C 209.04 150.43 201.16 157.05 192.66 162.67 C 188.52 165.29 184.24 167.67 180.02 170.16 C 176.70 166.42 172.50 163.56 169.32 159.72 C 168.99 156.73 172.61 155.30 174.32 153.32 C 179.93 147.73 186.57 143.30 193.74 139.94 C 201.36 136.70 209.40 134.62 217.35 132.32 C 228.25 129.20 238.80 124.94 248.97 119.94 C 255.93 116.57 262.92 112.81 270.72 111.89 C 279.45 110.89 288.26 111.67 296.99 112.34 C 311.88 113.26 326.67 110.71 341.28 108.16 Z" />
<path fill="#958c6d" opacity="1.00" d=" M 397.59 116.11 C 403.09 116.86 408.41 118.45 413.79 119.78 C 424.07 122.46 434.56 125.43 443.34 131.64 C 454.80 139.22 464.84 148.76 473.77 159.18 C 481.46 168.90 484.65 181.16 489.74 192.27 C 496.23 207.72 505.33 222.10 509.69 238.39 C 512.83 248.30 513.32 258.73 514.83 268.95 C 510.05 267.71 505.00 267.78 500.19 268.80 C 497.84 258.87 493.11 249.77 489.72 240.19 C 484.72 226.06 475.99 213.72 467.50 201.52 C 461.84 193.34 457.20 184.53 451.78 176.21 C 447.63 169.83 441.98 164.53 435.68 160.29 C 424.71 152.35 412.69 145.92 400.24 140.63 C 397.23 139.37 394.14 138.32 391.05 137.27 C 393.51 130.31 396.22 123.41 397.59 116.11 Z" />
<path fill="#958c6d" opacity="1.00" d=" M 65.46 142.45 C 69.41 136.45 74.48 131.30 79.82 126.54 C 87.30 132.51 96.75 134.88 104.79 139.89 C 101.96 143.65 98.74 147.08 95.62 150.59 C 90.76 156.56 86.76 163.15 82.38 169.45 C 74.75 179.90 67.78 190.95 62.84 202.95 C 60.63 208.00 61.31 213.64 61.30 218.99 C 61.19 229.92 63.94 240.95 61.08 251.74 C 55.62 251.87 50.09 250.62 44.67 251.69 C 42.80 252.94 42.96 255.53 43.32 257.48 C 45.42 259.17 48.08 259.89 50.55 260.83 C 50.74 274.35 50.54 287.87 50.50 301.38 C 48.42 302.36 46.26 303.22 44.37 304.55 C 41.88 306.11 42.72 310.75 45.68 311.25 C 49.12 311.96 52.66 311.52 56.14 311.44 C 57.16 321.61 58.89 331.75 58.46 342.00 C 58.05 356.47 60.01 370.85 62.60 385.05 C 63.98 394.87 65.98 404.61 68.82 414.12 C 72.78 425.11 79.95 434.52 84.91 445.02 C 90.53 459.29 95.94 473.77 104.10 486.83 C 111.82 499.12 120.03 511.48 131.30 520.84 C 134.62 523.76 137.67 527.00 141.22 529.66 C 147.81 534.60 155.25 538.23 162.12 542.72 C 171.31 548.50 180.53 554.40 190.80 558.08 C 199.61 561.95 209.33 562.49 218.75 563.71 C 237.37 566.23 256.29 566.14 275.00 564.63 C 284.76 563.94 294.25 566.72 303.89 567.70 C 311.01 568.92 318.30 570.35 325.50 568.83 C 335.21 567.51 344.48 564.21 354.04 562.23 C 367.03 559.79 380.20 558.73 393.35 557.64 C 396.05 557.39 398.76 557.30 401.47 557.19 C 402.43 561.12 403.67 564.98 405.29 568.70 C 408.22 575.79 413.02 581.91 415.91 589.03 C 400.44 592.08 384.60 589.46 369.00 590.76 C 353.51 592.44 338.61 597.72 323.00 598.50 C 309.58 598.61 296.43 594.92 282.99 595.42 C 265.90 596.01 249.09 590.19 231.99 592.75 C 224.10 594.36 216.04 595.34 207.99 595.49 C 194.87 595.24 183.52 587.88 172.72 581.25 C 162.83 574.55 150.87 572.34 139.85 568.21 C 125.60 563.27 113.78 553.21 104.39 541.64 C 97.73 535.23 92.86 527.03 85.11 521.77 C 81.23 519.05 78.72 514.92 75.14 511.87 C 67.99 505.60 62.39 497.33 60.12 488.03 C 58.20 480.48 57.85 472.63 56.06 465.04 C 54.72 458.75 52.21 452.79 50.73 446.54 C 48.64 437.31 47.27 427.92 44.87 418.76 C 43.72 414.22 43.40 409.50 41.90 405.06 C 38.05 393.01 36.35 380.44 33.63 368.12 C 32.03 360.42 28.87 353.16 27.26 345.47 C 26.07 340.49 25.70 335.37 25.26 330.29 C 23.78 319.83 21.92 309.43 20.28 299.00 C 19.30 294.01 20.45 288.98 20.50 283.96 C 21.28 273.18 24.67 262.77 25.45 251.99 C 26.37 238.43 28.06 224.89 31.31 211.67 C 34.31 196.92 44.89 185.54 51.42 172.37 C 56.50 162.58 59.20 151.63 65.46 142.45 Z" />
<path fill="#958c6d" opacity="1.00" d=" M 371.83 162.50 C 376.07 155.76 381.73 150.05 386.03 143.33 C 387.24 143.64 388.44 143.97 389.65 144.32 C 401.69 147.84 412.67 154.19 423.35 160.62 C 430.62 165.11 438.08 169.84 443.06 176.96 C 451.38 188.51 457.63 201.41 466.15 212.84 C 478.83 230.22 486.01 250.69 493.35 270.70 C 493.95 270.79 495.16 270.97 495.76 271.06 C 483.59 277.62 482.23 295.96 491.41 305.56 C 493.46 307.72 495.94 309.42 498.55 310.86 C 497.81 317.55 498.52 324.31 497.78 331.01 C 497.50 344.66 495.36 358.25 491.97 371.45 C 486.00 389.31 474.64 404.68 467.62 422.09 C 464.24 420.09 461.20 417.60 458.25 415.03 C 461.10 409.37 464.65 404.09 467.23 398.29 C 472.38 386.54 477.23 374.45 478.61 361.60 C 476.00 361.40 473.38 361.24 470.78 361.06 C 470.48 364.46 470.25 367.87 470.39 371.28 C 468.40 370.93 466.41 370.59 464.42 370.29 C 464.47 365.53 464.24 360.77 464.49 356.02 C 464.57 353.36 465.63 350.56 467.89 349.01 C 469.65 347.97 471.65 347.47 473.57 346.81 C 471.74 349.82 467.62 353.57 470.62 357.14 C 472.76 360.77 477.25 359.23 480.57 358.67 C 481.12 355.49 482.02 352.19 481.21 348.97 C 480.36 345.95 477.26 344.62 474.79 343.21 C 475.23 343.18 476.12 343.14 476.57 343.11 C 477.23 343.17 478.57 343.29 479.23 343.35 C 479.38 336.31 479.31 329.25 480.02 322.24 C 480.86 312.86 482.15 303.42 481.07 294.00 C 479.69 282.11 476.73 270.30 471.41 259.54 C 471.06 257.45 470.73 255.35 470.41 253.26 C 462.17 253.04 453.90 251.66 445.69 252.98 C 445.85 254.81 445.92 256.66 446.36 258.46 C 448.30 260.14 450.74 261.08 452.81 262.59 C 453.05 264.51 452.75 266.45 452.59 268.37 C 451.13 268.20 449.68 268.05 448.23 267.91 C 442.11 251.30 432.56 236.14 422.18 221.88 C 420.61 219.78 418.95 217.73 417.16 215.82 C 402.78 200.68 383.97 190.61 364.57 183.44 C 354.61 179.13 344.06 176.46 333.46 174.28 C 326.06 172.81 318.55 171.45 310.97 171.69 C 298.26 172.32 285.64 174.07 273.04 175.78 C 264.46 177.24 255.71 177.86 247.35 180.39 C 240.06 182.57 232.73 184.84 225.91 188.29 C 220.59 191.09 215.23 193.86 210.35 197.38 C 208.43 198.61 206.63 200.21 204.35 200.72 C 201.28 198.13 198.87 194.88 196.45 191.72 C 207.68 182.79 219.71 174.50 233.30 169.60 C 242.88 166.56 253.08 167.34 262.97 166.31 C 277.32 164.80 291.62 162.81 306.01 161.77 C 319.19 162.35 332.43 162.45 345.50 164.58 C 355.89 166.41 366.21 169.20 375.86 173.52 C 387.21 178.59 397.29 186.01 408.33 191.67 C 419.32 197.82 431.30 203.68 438.73 214.28 C 447.56 225.96 453.98 239.23 460.01 252.52 C 462.70 252.27 465.39 251.97 468.09 251.68 C 464.55 242.98 460.37 234.54 455.78 226.35 C 451.66 218.97 447.72 211.33 441.90 205.10 C 434.94 197.46 426.22 191.73 417.23 186.75 C 404.36 179.61 391.73 171.99 378.39 165.74 C 376.18 164.69 374.00 163.61 371.83 162.50 Z" />
<path fill="#958c6d" opacity="1.00" d=" M 189.75 229.77 C 193.60 222.89 199.07 217.08 204.91 211.86 C 208.67 214.97 212.47 218.13 216.87 220.32 C 218.59 221.20 220.31 222.07 222.04 222.94 C 213.72 229.18 203.81 233.99 198.14 243.10 C 191.98 253.43 189.55 265.37 185.71 276.65 C 183.21 284.97 180.79 293.86 182.49 302.57 C 180.14 301.91 177.80 301.26 175.46 300.62 C 174.43 289.94 172.65 279.37 170.97 268.79 C 171.49 269.88 172.04 270.96 172.60 272.05 C 173.53 268.23 174.85 264.23 173.56 260.33 C 174.77 258.86 175.74 257.21 176.69 255.57 C 180.89 246.90 184.74 238.03 189.75 229.77 Z" />
<path fill="#958c6d" opacity="1.00" d=" M 276.32 270.65 C 287.31 266.52 299.30 264.86 311.01 265.88 C 317.13 266.31 322.76 269.41 328.93 269.40 C 323.95 271.45 319.11 275.02 317.56 280.42 C 315.52 287.88 313.88 296.65 318.56 303.51 C 321.58 308.85 327.58 311.20 333.21 312.71 C 331.79 312.59 330.37 312.48 328.95 312.40 C 328.65 316.07 328.72 319.88 327.29 323.34 C 324.88 329.23 319.68 333.81 313.61 335.68 C 305.04 338.41 295.06 338.63 287.23 333.68 C 282.60 330.54 279.53 325.57 277.36 320.51 C 274.86 314.85 275.52 308.56 275.20 302.56 C 274.08 303.72 272.95 304.88 271.89 306.11 C 272.74 304.27 273.54 302.41 274.38 300.57 C 277.42 304.55 279.59 309.29 283.42 312.63 C 285.05 314.15 287.70 313.88 289.03 312.11 C 292.66 307.99 294.73 302.78 296.74 297.74 C 298.94 292.32 298.91 286.39 300.03 280.73 C 300.77 276.48 306.51 276.63 308.62 273.45 C 309.45 271.32 308.47 268.14 305.85 268.04 C 300.34 267.35 294.68 267.46 289.20 268.28 C 286.77 268.36 285.42 272.06 287.18 273.71 C 288.79 275.75 291.35 277.06 292.49 279.44 C 293.14 283.28 291.11 286.87 289.60 290.26 C 289.40 289.91 289.01 289.20 288.81 288.84 C 290.11 285.84 291.18 282.75 291.86 279.54 C 289.37 280.12 286.93 281.13 285.58 283.44 C 284.30 280.06 283.59 276.42 281.76 273.27 C 280.70 271.32 278.16 271.36 276.32 270.65 M 300.12 286.30 C 305.17 286.80 310.02 288.32 314.74 290.11 C 315.08 287.37 315.40 284.62 315.64 281.86 C 311.19 280.06 306.52 278.96 301.77 278.38 C 301.18 281.01 300.62 283.65 300.12 286.30 Z" />
<path fill="#958c6d" opacity="1.00" d=" M 524.74 302.07 C 524.83 306.56 525.24 311.06 526.43 315.41 C 528.71 323.90 527.88 332.90 525.73 341.33 C 523.23 351.68 520.85 362.13 520.48 372.82 C 519.47 392.85 513.08 411.99 507.02 430.94 C 506.38 432.57 505.82 434.31 504.63 435.65 C 499.83 436.17 494.95 435.35 490.51 433.49 C 484.93 431.11 479.12 429.05 474.24 425.35 C 477.69 417.62 481.14 409.85 485.62 402.64 C 489.85 395.61 493.46 388.23 496.70 380.70 C 499.06 375.18 500.08 369.23 501.44 363.41 C 505.24 346.88 506.15 329.79 505.32 312.88 C 510.67 313.43 516.46 313.03 521.12 310.09 C 523.82 308.38 523.95 304.85 524.74 302.07 Z" />
<path fill="#958c6d" opacity="1.00" d=" M 336.89 313.11 C 343.71 313.21 350.26 310.17 354.77 305.09 C 354.37 310.75 355.88 316.40 354.91 322.04 C 354.09 329.86 350.52 337.04 346.06 343.40 C 336.63 341.41 326.96 343.86 317.48 342.11 C 324.62 338.45 331.09 332.94 334.52 325.56 C 336.38 321.68 336.58 317.32 336.89 313.11 Z" />
<path fill="#958c6d" opacity="1.00" d=" M 386.20 312.41 C 391.69 313.25 397.47 313.10 402.65 310.91 C 402.53 319.39 402.79 327.95 401.14 336.32 C 398.99 348.05 394.32 359.28 387.84 369.27 C 387.56 369.70 387.02 370.57 386.75 371.00 C 385.27 370.27 383.80 369.53 382.32 368.81 C 381.69 360.09 383.70 351.08 380.78 342.63 C 383.68 332.81 385.65 322.64 386.20 312.41 Z" />
<path fill="#958c6d" opacity="1.00" d=" M 295.15 343.88 C 301.17 345.22 307.35 344.16 313.29 342.90 C 313.40 344.34 313.38 345.81 313.78 347.22 C 315.14 348.83 316.91 350.03 318.29 351.64 C 319.09 354.42 318.74 357.38 318.77 360.25 C 312.75 361.74 306.54 361.62 300.41 362.16 C 300.52 359.03 300.80 355.86 300.17 352.76 C 299.42 349.37 297.33 346.49 295.15 343.88 Z" />
<path fill="#958c6d" opacity="1.00" d=" M 465.36 444.34 C 467.05 441.15 470.92 442.36 473.57 443.43 C 477.52 444.80 480.72 447.53 484.08 449.90 C 487.00 452.00 490.65 452.53 494.14 452.93 C 483.36 462.22 470.72 469.02 459.54 477.80 C 441.41 492.24 419.12 499.56 398.09 508.58 C 394.47 502.42 391.18 496.07 387.78 489.78 C 395.87 485.92 404.11 482.33 411.90 477.86 C 419.10 473.60 426.45 469.60 433.97 465.94 C 445.29 460.24 457.62 454.85 465.36 444.34 Z" />
<path fill="#958c6d" opacity="1.00" d=" M 503.45 511.38 C 510.23 502.33 518.25 494.21 527.23 487.33 C 531.67 498.37 536.70 509.17 542.75 519.43 C 530.53 526.95 519.72 536.51 509.39 546.41 C 503.23 551.81 496.39 556.47 489.01 560.03 C 479.74 565.07 470.90 570.97 461.10 574.98 C 454.65 577.74 448.05 580.18 441.26 581.98 C 438.20 574.42 435.07 566.63 429.49 560.53 C 426.82 557.94 423.58 555.88 421.72 552.57 C 432.37 549.47 443.36 547.39 453.54 542.84 C 465.21 538.60 476.44 533.25 487.37 527.37 C 493.95 523.47 498.96 517.46 503.45 511.38 Z" />
</g>
<g id="#fcfcf9ff">
</g>
<g id="#fefefbff">
</g>
<g id="#958c6eff">
<path fill="#958c6e" opacity="1.00" d=" M 285.75 135.67 C 294.40 133.78 303.13 132.00 312.00 131.69 C 325.03 132.02 337.82 134.73 350.68 136.63 C 357.20 137.91 363.87 138.66 370.22 140.68 C 372.27 141.04 371.41 143.52 371.36 144.91 C 370.36 150.64 368.69 156.23 367.22 161.86 C 361.25 160.05 355.23 158.39 349.10 157.21 C 336.22 154.56 323.07 154.37 310.00 153.65 C 297.45 153.56 284.96 155.29 272.57 157.17 C 260.09 158.76 247.36 158.23 235.04 161.02 C 220.60 164.84 207.68 172.86 196.20 182.23 C 194.38 183.97 191.95 184.62 189.50 184.65 C 188.06 181.90 186.28 179.37 184.48 176.85 C 191.59 171.40 199.25 166.74 206.43 161.38 C 214.93 154.98 224.46 149.96 234.53 146.55 C 251.40 142.05 268.62 139.01 285.75 135.67 Z" />
<path fill="#958c6e" opacity="1.00" d=" M 122.47 168.47 C 126.25 164.23 129.55 159.58 132.94 155.03 C 137.43 159.66 140.93 165.10 144.32 170.56 C 145.20 172.07 143.53 173.56 142.87 174.83 C 135.73 184.49 129.22 194.59 122.78 204.73 C 114.89 218.19 109.30 232.84 105.09 247.83 C 100.42 264.08 98.09 281.08 98.85 297.99 C 100.97 318.11 96.57 338.29 98.89 358.41 C 99.91 365.40 101.43 372.30 102.31 379.32 C 104.35 394.35 108.53 409.12 115.32 422.72 C 119.69 431.00 123.26 439.69 128.20 447.67 C 135.84 460.93 146.49 472.06 156.34 483.64 C 164.34 493.40 174.07 501.71 184.95 508.09 C 195.50 513.89 207.05 517.61 218.67 520.62 C 235.47 525.26 252.33 531.24 270.01 530.71 C 287.17 531.32 304.23 529.18 321.32 528.07 C 332.79 527.03 344.26 525.91 355.61 523.90 C 365.56 522.50 375.37 520.08 385.41 519.29 C 386.13 521.33 386.86 523.37 387.61 525.42 C 380.81 528.35 373.61 530.17 366.56 532.39 C 359.31 534.46 351.84 535.62 344.55 537.55 C 333.18 540.43 321.88 544.30 310.04 544.61 C 302.05 545.34 294.01 545.63 286.00 545.02 C 278.45 544.35 270.85 544.84 263.30 544.30 C 242.86 542.40 222.57 539.20 202.46 535.13 C 193.61 533.18 185.41 529.22 176.98 526.05 C 172.40 524.31 167.70 522.84 163.28 520.71 C 160.45 519.31 157.68 517.78 155.02 516.08 C 146.12 509.80 138.45 501.86 131.91 493.18 C 125.80 485.10 119.54 476.98 115.38 467.68 C 109.62 454.91 104.63 441.81 99.05 428.97 C 93.75 415.94 89.64 402.17 89.60 388.00 C 90.01 368.59 86.92 349.36 85.53 330.05 C 85.43 323.86 83.97 317.83 83.31 311.70 C 84.95 311.64 86.63 311.61 88.21 311.10 C 89.56 309.99 90.01 308.21 90.49 306.62 C 92.19 299.94 93.15 293.04 92.80 286.14 C 90.34 286.44 86.24 284.93 85.21 288.08 C 83.53 292.84 83.06 297.92 81.91 302.83 C 77.35 303.00 72.77 303.21 68.24 302.62 L 68.21 301.77 C 72.21 302.08 76.22 302.38 80.24 302.32 C 78.84 295.22 75.79 288.35 76.29 280.97 C 76.06 274.54 78.78 268.61 80.55 262.58 C 82.45 255.91 85.98 249.84 87.81 243.15 C 91.96 229.72 88.86 215.14 94.02 201.92 C 96.67 194.89 102.07 189.48 107.05 184.04 C 112.19 178.85 117.44 173.77 122.47 168.47 Z" />
<path fill="#958c6e" opacity="1.00" d=" M 130.36 206.38 C 137.05 196.04 142.92 184.93 151.92 176.33 C 156.62 177.67 161.22 179.42 165.34 182.09 C 159.97 187.50 154.46 192.89 150.42 199.41 C 145.90 206.77 142.05 214.53 138.49 222.39 C 134.42 231.37 130.01 240.21 126.52 249.43 C 125.62 251.76 125.29 254.24 125.09 256.70 C 123.74 254.85 122.46 252.36 119.92 252.09 C 115.05 251.31 110.09 251.73 105.19 251.79 L 105.45 250.94 C 107.55 250.66 109.68 250.60 111.79 250.51 C 116.21 235.16 122.11 220.10 130.36 206.38 Z" />
<path fill="#958c6e" opacity="1.00" d=" M 285.83 182.05 C 296.19 180.95 306.60 178.79 317.05 180.11 C 328.76 181.30 340.54 183.16 351.57 187.38 C 365.90 192.22 380.20 197.70 392.84 206.13 C 403.85 212.74 413.50 221.66 420.62 232.37 C 428.08 243.60 435.59 255.01 440.28 267.72 C 434.29 270.14 429.38 274.87 426.96 280.89 C 421.85 271.85 416.06 263.21 410.64 254.35 C 405.08 245.14 397.11 237.74 391.08 228.87 C 387.02 223.41 382.83 217.82 377.29 213.77 C 368.37 208.16 357.95 205.76 347.87 203.17 C 337.03 200.42 327.07 194.84 316.02 192.84 C 304.31 191.26 292.63 193.76 281.00 194.92 C 268.78 196.21 256.92 199.85 245.66 204.68 C 237.45 208.11 231.98 215.41 225.12 220.74 C 223.86 219.49 222.60 218.25 221.33 217.02 C 217.92 213.80 214.47 210.61 211.32 207.13 C 216.08 203.53 220.95 200.01 226.35 197.40 C 244.51 187.26 265.45 184.23 285.83 182.05 Z" />
<path fill="#958c6e" opacity="1.00" d=" M 164.48 192.51 C 167.10 190.17 169.69 187.58 172.98 186.21 C 176.60 188.39 179.70 191.35 182.68 194.31 C 182.27 196.35 180.66 197.84 179.54 199.51 C 174.73 205.67 170.79 212.43 166.58 219.00 C 161.29 227.02 155.89 235.02 151.63 243.65 C 147.63 252.00 145.57 261.07 142.82 269.87 C 141.51 273.94 140.76 278.18 140.51 282.45 C 140.44 282.89 140.28 283.76 140.20 284.19 C 136.30 277.22 132.26 270.33 128.52 263.28 C 131.05 258.53 132.16 253.21 134.21 248.26 C 137.80 239.63 141.91 231.23 145.70 222.69 C 150.68 211.94 155.75 200.80 164.48 192.51 Z" />
<path fill="#958c6e" opacity="1.00" d=" M 187.60 199.65 C 188.92 197.76 191.47 198.23 193.34 198.89 C 195.88 200.04 197.81 202.13 199.81 204.01 C 195.63 208.75 190.93 213.05 187.17 218.16 C 179.74 228.70 174.10 240.45 169.94 252.64 C 164.43 253.15 158.91 253.72 153.37 253.55 C 155.37 250.10 156.83 246.36 158.77 242.88 C 162.95 234.95 168.26 227.72 173.02 220.15 C 177.69 213.19 181.97 205.90 187.60 199.65 Z" />
<path fill="#958c6e" opacity="1.00" d=" M 249.58 210.48 C 264.85 202.60 282.21 200.89 298.99 198.76 C 309.90 197.60 321.00 199.59 331.01 203.98 C 342.68 208.99 355.26 211.31 367.10 215.83 C 373.24 218.13 378.54 222.36 382.01 227.93 C 387.09 235.74 392.96 242.97 399.00 250.03 C 406.09 258.37 410.41 268.52 416.48 277.55 C 419.35 281.90 422.06 286.37 424.65 290.90 C 425.04 288.87 425.43 286.83 425.88 284.81 C 425.14 291.74 426.28 298.75 428.88 305.20 C 428.36 304.82 427.31 304.05 426.79 303.67 C 427.94 316.71 427.11 329.77 425.85 342.77 C 419.75 340.01 412.54 340.04 406.72 343.49 C 409.43 337.73 409.42 331.24 409.85 325.02 C 410.27 318.79 411.06 312.28 408.61 306.34 C 417.12 297.66 416.90 282.26 408.17 273.82 C 405.22 270.85 401.27 269.20 397.39 267.85 C 391.59 257.05 385.74 245.81 376.31 237.68 C 370.49 232.54 363.07 229.88 355.96 227.07 C 350.24 224.79 344.41 222.78 338.43 221.31 C 326.71 217.08 314.03 217.47 301.95 214.80 C 291.16 213.51 280.25 214.64 269.51 215.96 C 262.61 216.66 255.68 218.17 249.58 221.59 C 242.79 225.17 237.67 231.07 232.64 236.73 C 227.93 242.30 222.17 247.05 218.45 253.42 C 213.95 261.07 210.50 269.27 207.10 277.45 C 202.31 277.02 196.87 275.27 192.84 278.91 C 198.33 269.18 199.37 257.65 205.00 247.98 C 209.12 240.28 216.73 235.51 223.72 230.70 C 232.90 224.68 239.70 215.52 249.58 210.48 Z" />
<path fill="#958c6e" opacity="1.00" d=" M 263.90 226.88 C 278.24 224.86 292.85 222.82 307.28 225.31 C 319.26 227.34 331.64 227.49 343.13 231.85 C 352.96 235.66 363.51 238.49 371.87 245.20 C 379.22 251.11 383.78 259.54 388.19 267.70 C 383.05 269.35 377.46 271.67 374.76 276.67 C 371.37 283.10 368.85 290.71 371.12 297.94 C 372.42 302.98 376.05 307.03 380.29 309.88 C 378.32 315.51 377.92 321.51 377.07 327.37 C 373.67 328.33 368.84 328.54 367.55 332.53 C 366.12 336.20 368.88 339.51 370.78 342.39 C 367.04 342.20 363.15 342.70 360.58 345.72 C 362.78 347.80 365.46 349.55 366.96 352.25 C 368.84 357.48 368.29 363.20 367.45 368.59 C 367.35 365.26 367.26 361.94 367.09 358.62 C 362.22 363.58 358.26 369.53 352.38 373.42 C 346.39 377.78 339.45 380.65 332.23 382.25 C 321.07 384.78 309.54 387.27 298.06 385.66 C 292.89 385.07 287.60 384.33 282.88 382.03 C 278.29 379.90 274.34 376.69 270.26 373.75 C 262.07 367.57 252.92 362.73 245.23 355.87 C 245.26 353.91 245.30 351.92 245.81 350.02 C 248.17 348.57 250.94 348.06 253.57 347.32 C 253.61 346.00 253.65 344.69 253.70 343.39 C 256.39 349.23 260.41 354.69 266.43 357.41 C 266.87 354.71 267.94 351.99 267.54 349.23 C 265.45 345.75 262.32 342.97 260.60 339.25 C 257.49 332.75 256.35 325.56 254.66 318.61 C 253.14 312.52 253.57 306.20 252.99 300.00 C 252.57 295.17 250.64 290.66 248.68 286.28 C 242.68 296.02 243.72 308.27 245.95 319.01 C 247.73 326.40 248.67 334.19 252.31 340.97 C 250.19 341.05 248.07 341.12 245.95 341.18 C 245.10 336.63 246.29 330.81 242.60 327.36 C 240.67 327.67 238.89 328.52 237.12 329.30 C 235.56 329.96 234.04 330.69 232.51 331.41 C 232.41 334.89 232.22 338.38 231.80 341.85 C 230.60 341.82 229.40 341.80 228.21 341.80 C 226.30 341.73 223.99 341.90 223.47 344.15 C 224.25 347.52 228.83 348.15 230.11 351.18 C 231.12 356.49 230.31 361.92 229.92 367.26 C 226.83 362.53 223.42 357.91 221.43 352.58 C 217.46 342.09 217.36 330.66 214.03 320.01 C 212.27 313.39 209.05 306.99 209.29 300.00 C 209.30 295.32 210.74 290.83 212.00 286.38 C 216.68 286.35 221.37 286.33 226.03 285.82 C 223.47 297.39 221.72 309.60 224.73 321.27 C 226.51 328.02 226.79 335.19 229.70 341.61 C 230.20 338.21 230.39 334.78 230.50 331.35 C 232.19 330.20 233.90 329.09 235.61 327.98 C 233.98 318.63 230.08 309.63 230.50 300.00 C 230.31 291.16 234.31 283.01 238.39 275.42 C 240.97 270.55 244.60 266.28 249.05 263.03 C 259.11 255.58 270.52 249.68 282.85 247.16 C 296.33 244.46 310.44 242.70 324.01 245.83 C 330.32 247.27 336.66 248.82 342.58 251.50 C 347.82 253.88 352.04 258.06 355.16 262.84 C 360.03 270.18 364.58 277.76 370.23 284.55 C 371.14 282.39 372.24 280.26 372.71 277.94 C 372.31 276.06 371.06 274.53 370.05 272.96 C 364.96 265.77 360.74 257.82 354.20 251.78 C 347.93 245.83 339.59 242.74 331.34 240.71 C 324.01 238.98 316.57 237.28 308.99 237.40 C 301.29 237.35 293.75 239.06 286.18 240.20 C 275.78 241.86 265.45 244.86 256.46 250.50 C 246.19 256.81 235.84 264.68 231.20 276.23 C 226.09 276.78 220.98 277.33 215.85 277.58 C 220.58 267.53 225.52 257.38 233.14 249.15 C 239.05 243.03 244.05 235.82 251.46 231.36 C 255.18 228.87 259.58 227.79 263.90 226.88 M 281.43 260.50 C 275.94 261.79 270.28 263.44 265.98 267.26 C 259.68 268.28 253.31 267.89 246.97 267.97 C 244.07 267.74 241.43 270.75 242.36 273.57 C 243.97 275.94 246.90 277.28 247.95 280.06 C 251.46 288.89 253.35 298.43 258.41 306.60 C 259.82 308.79 261.19 311.19 263.44 312.64 C 266.18 313.77 268.69 311.21 270.19 309.19 C 268.90 311.52 267.75 314.12 268.28 316.85 C 269.67 326.88 276.33 336.09 285.28 340.69 C 278.83 341.28 270.92 343.84 268.96 350.81 C 267.54 355.67 265.81 361.13 268.02 366.03 C 270.31 371.04 274.29 375.73 279.86 377.04 C 285.61 378.44 292.41 378.05 297.09 374.05 C 298.81 372.74 298.36 370.40 298.53 368.53 C 304.92 369.93 311.48 368.79 317.82 367.70 C 316.01 369.48 312.46 371.31 313.63 374.37 C 314.89 377.36 318.59 376.17 321.06 376.04 C 325.69 375.21 330.33 376.07 334.96 376.37 C 336.85 376.60 339.22 375.12 338.76 373.00 C 338.54 369.80 333.85 369.26 333.64 365.99 C 333.04 360.96 331.25 354.33 336.10 350.83 C 337.39 354.52 337.57 361.27 343.00 360.89 C 350.16 361.50 352.78 352.21 349.17 347.15 L 349.80 347.94 C 358.02 339.21 362.07 326.90 361.50 315.00 C 361.19 309.54 361.53 303.47 358.25 298.79 C 361.75 289.78 359.42 278.42 351.52 272.45 C 347.22 268.65 341.35 267.53 335.77 267.54 L 336.88 267.28 C 331.68 263.58 325.66 261.23 319.55 259.51 C 307.02 256.15 293.91 257.83 281.43 260.50 M 333.76 361.49 C 334.93 360.70 336.16 359.96 337.22 359.01 C 336.80 356.84 336.08 354.74 335.42 352.64 C 333.55 355.22 333.42 358.42 333.76 361.49 Z" />
<path fill="#958c6e" opacity="1.00" d=" M 147.97 288.00 C 149.27 283.82 150.94 279.77 153.09 275.96 C 155.09 283.15 156.02 290.61 156.35 298.05 C 157.40 303.17 148.77 303.67 149.93 308.73 C 151.56 313.64 157.63 311.03 161.34 310.77 C 168.58 308.90 177.20 312.57 183.36 307.26 C 182.79 313.12 183.92 318.94 185.57 324.54 C 187.45 330.75 188.57 337.15 189.81 343.52 C 183.72 342.98 177.55 342.69 171.50 343.78 C 169.35 332.89 168.21 321.80 168.68 310.69 C 166.05 310.74 163.41 310.82 160.78 310.90 C 159.69 331.24 166.00 351.03 172.93 369.89 C 174.38 369.81 175.83 369.74 177.28 369.67 C 175.60 370.65 173.88 371.56 172.16 372.47 C 172.28 373.80 172.41 375.14 172.53 376.49 C 182.28 375.76 192.04 376.55 201.81 376.31 C 204.48 381.99 208.05 387.20 211.82 392.20 C 219.62 402.00 231.34 407.22 240.44 415.55 C 247.21 421.43 252.88 429.00 261.35 432.58 C 275.88 438.26 291.64 438.86 306.99 440.25 C 312.67 440.72 318.32 439.76 323.98 439.45 C 334.29 438.72 344.14 435.39 354.10 432.89 C 366.13 428.83 377.49 422.94 388.36 416.40 C 392.35 414.13 395.29 410.54 398.08 406.99 C 400.35 408.54 402.50 410.35 405.05 411.45 C 408.45 412.24 411.84 410.86 415.15 410.26 C 407.22 419.34 397.35 426.47 387.73 433.65 C 378.23 440.14 367.51 444.75 356.30 447.33 C 339.16 451.82 321.73 455.55 304.00 456.52 C 286.58 457.09 269.27 452.58 253.39 445.63 C 242.36 440.84 232.11 433.97 224.27 424.76 C 216.44 415.62 207.89 407.13 199.44 398.56 C 194.11 393.16 188.91 387.44 185.53 380.59 C 184.76 379.31 184.32 377.71 182.98 376.90 C 180.71 376.71 178.46 377.12 176.23 377.44 C 180.19 385.76 185.40 393.54 191.95 400.04 C 198.93 407.07 205.93 414.08 212.62 421.39 C 221.89 430.87 230.94 441.21 243.11 447.03 C 259.93 456.20 278.84 461.36 297.95 462.38 C 307.19 462.54 316.35 460.96 325.48 459.81 C 339.14 458.06 352.30 453.93 365.68 450.89 C 364.81 456.42 364.34 462.00 364.44 467.61 C 355.73 469.23 347.00 470.72 338.31 472.40 C 325.70 474.83 312.75 475.05 300.00 473.81 C 286.02 472.67 272.01 474.36 258.03 473.48 C 246.67 472.52 237.04 465.56 228.82 458.19 C 221.93 452.04 214.47 446.57 207.57 440.43 C 200.43 433.90 193.55 427.02 187.70 419.29 C 180.36 409.67 171.90 400.94 164.97 391.01 C 162.03 386.97 160.66 382.05 157.86 377.95 C 155.96 376.96 153.79 376.70 151.73 376.23 C 153.63 387.94 160.32 398.23 168.07 406.94 C 174.07 413.67 179.56 420.83 185.08 427.95 C 196.00 441.72 210.30 452.12 223.53 463.49 C 229.69 468.42 235.79 473.63 242.98 477.04 C 248.90 479.91 255.41 481.44 261.95 481.96 C 272.96 483.19 283.99 480.76 295.00 482.09 C 310.33 482.68 325.85 483.53 341.02 480.67 C 350.21 479.31 359.23 476.80 368.52 476.14 C 370.36 479.20 372.20 482.27 373.95 485.40 C 351.40 493.79 327.74 498.93 303.82 501.30 C 289.97 501.78 275.98 502.09 262.31 499.45 C 244.31 496.01 225.18 494.62 209.19 484.82 C 199.06 477.77 191.39 467.90 182.14 459.82 C 172.79 450.90 162.36 442.86 154.92 432.15 C 147.52 420.09 143.28 406.47 138.85 393.12 C 134.03 378.46 127.52 364.17 125.53 348.74 C 124.10 332.69 128.53 316.85 127.80 300.79 C 130.35 305.50 132.66 311.13 138.31 312.79 C 139.63 318.41 140.65 324.10 141.81 329.76 C 142.89 329.55 143.98 329.35 145.07 329.15 C 143.97 331.70 141.31 334.72 143.18 337.49 C 145.22 341.49 152.21 342.09 154.05 337.64 C 154.96 335.50 154.84 332.71 153.23 330.92 C 151.36 328.33 147.77 329.48 145.07 329.15 C 146.26 327.77 148.09 326.41 147.36 324.33 C 146.04 317.69 144.31 311.12 143.69 304.36 C 143.26 304.49 142.39 304.76 141.96 304.89 C 143.63 299.14 146.18 293.70 147.97 288.00 M 135.69 345.11 C 135.16 349.09 141.40 349.22 141.32 352.98 C 141.57 357.90 141.79 362.90 141.05 367.78 C 139.80 369.62 137.89 370.85 136.47 372.55 C 135.62 374.39 137.15 376.77 139.21 376.64 C 144.75 376.94 150.28 375.68 155.82 376.29 C 157.84 376.30 160.85 377.24 161.65 374.63 C 162.84 370.93 157.33 370.56 156.42 367.73 C 155.55 359.94 157.34 351.99 155.78 344.26 C 154.26 341.16 150.93 342.92 148.81 344.22 C 147.62 344.18 146.42 344.15 145.23 344.15 C 142.47 341.88 137.33 341.14 135.69 345.11 Z" />
<path fill="#958c6e" opacity="1.00" d=" M 192.52 283.24 C 195.82 284.86 199.37 285.97 203.05 286.27 C 202.26 291.48 200.97 296.72 201.64 302.02 C 202.60 310.01 205.87 317.45 207.84 325.20 C 210.32 333.43 210.72 342.13 213.48 350.28 C 215.98 358.42 220.44 365.78 225.34 372.70 C 231.37 380.89 238.34 388.71 247.38 393.64 C 257.41 399.14 267.53 405.28 279.02 407.10 C 292.20 408.94 305.53 412.09 318.88 409.79 C 330.26 407.75 341.99 406.98 352.88 402.83 C 364.11 398.52 374.84 392.67 383.83 384.62 C 384.79 383.81 385.75 383.01 386.72 382.21 C 388.28 388.01 392.14 392.99 393.55 398.77 C 390.07 403.47 385.73 407.76 380.44 410.38 C 369.40 415.77 358.58 421.87 346.58 424.90 C 336.08 428.41 325.01 429.52 314.03 430.37 C 307.66 430.71 301.34 429.80 295.01 429.44 C 285.79 428.47 276.45 427.50 267.63 424.47 C 261.84 422.46 257.57 417.88 252.98 414.04 C 247.73 409.62 242.79 404.79 237.08 400.95 C 231.59 397.19 225.99 393.43 221.45 388.53 C 217.94 384.85 215.37 380.44 212.32 376.41 C 213.73 375.45 215.75 374.34 215.15 372.29 C 213.74 370.51 211.91 369.12 210.49 367.36 C 209.73 363.37 210.81 359.30 210.50 355.28 C 210.32 350.98 208.81 346.38 205.22 343.75 C 202.66 341.74 199.28 342.88 196.38 343.19 C 196.96 341.92 197.85 340.69 197.84 339.24 C 197.76 332.52 195.61 326.08 193.87 319.65 C 192.63 314.48 191.63 309.24 190.95 303.96 C 190.04 297.00 192.17 290.16 192.52 283.24 Z" />
<path fill="#958c6e" opacity="1.00" d=" M 105.44 310.78 C 110.60 310.73 115.77 310.68 120.90 311.32 C 119.37 317.79 119.69 324.49 118.81 331.05 C 118.29 336.26 117.16 341.52 118.00 346.77 C 118.85 352.82 119.72 358.88 121.18 364.82 C 124.15 375.50 128.16 385.86 131.69 396.36 C 136.66 410.96 141.33 426.02 150.20 438.81 C 161.55 452.74 176.06 463.60 188.44 476.56 C 194.58 482.07 200.25 488.25 207.22 492.76 C 223.70 502.39 243.03 504.62 261.52 507.68 C 273.59 509.37 285.81 511.15 298.02 510.05 C 313.77 508.80 329.59 507.15 344.93 503.17 C 356.02 500.94 366.56 496.77 377.22 493.10 C 380.76 499.02 383.23 505.59 383.96 512.48 C 376.08 513.88 368.13 514.82 360.23 516.13 C 349.82 517.56 339.64 520.80 329.04 520.58 C 305.94 522.25 282.77 524.98 259.59 523.21 C 245.26 521.73 231.50 517.36 217.73 513.37 C 206.34 509.55 194.41 506.44 184.41 499.51 C 175.63 493.48 167.91 486.04 160.93 478.03 C 152.34 468.58 143.85 458.96 136.63 448.40 C 130.50 438.78 126.18 428.16 120.88 418.08 C 111.67 399.73 109.06 379.12 106.11 359.06 C 104.93 350.25 105.30 341.31 105.70 332.46 C 106.35 325.25 106.93 317.93 105.44 310.78 Z" />
<path fill="#958c6e" opacity="1.00" d=" M 455.76 311.89 C 461.88 311.66 467.99 311.06 474.12 311.19 C 472.21 321.07 471.81 331.17 471.48 341.20 C 473.16 341.85 474.85 342.51 476.57 343.11 C 476.12 343.14 475.23 343.18 474.79 343.21 C 471.16 343.11 467.81 345.08 464.24 345.03 C 458.52 343.39 452.57 343.57 446.69 343.83 C 446.65 345.22 446.63 346.62 446.62 348.02 C 446.15 347.95 445.23 347.83 444.76 347.77 C 445.03 346.33 445.30 344.89 445.57 343.45 C 446.56 343.27 447.55 343.10 448.55 342.94 C 450.45 342.64 452.36 342.43 454.28 342.21 C 454.88 335.11 455.58 328.02 456.30 320.94 C 456.62 317.91 456.42 314.85 455.76 311.89 Z" />
<path fill="#958c6e" opacity="1.00" d=" M 254.54 364.66 C 254.48 367.45 254.36 370.24 254.20 373.02 C 258.31 375.88 262.52 378.57 266.66 381.38 C 273.15 385.89 279.82 390.66 287.72 392.30 C 295.84 393.94 304.23 394.82 312.49 393.78 C 324.64 392.37 337.09 390.73 348.13 385.11 C 353.14 382.48 358.27 379.35 361.24 374.36 C 362.37 372.43 363.79 370.65 365.82 369.61 C 364.40 371.11 363.14 372.82 362.55 374.83 C 364.20 377.26 367.31 376.56 369.82 376.63 C 373.99 376.44 378.17 376.64 382.34 376.87 L 381.68 377.74 C 375.84 385.16 367.21 389.69 358.99 393.98 C 352.63 397.01 346.08 399.89 339.06 400.92 C 328.43 402.62 317.79 404.99 306.96 404.64 C 299.07 404.75 291.32 403.10 283.58 401.75 C 278.39 400.82 273.14 399.87 268.30 397.71 C 256.96 392.40 245.76 386.26 236.93 377.21 C 240.78 377.42 245.00 378.39 248.57 376.47 C 252.67 374.01 253.37 368.86 254.54 364.66 Z" />
<path fill="#958c6e" opacity="1.00" d=" M 414.65 421.66 C 418.59 418.06 421.78 413.67 426.02 410.39 C 432.12 412.30 437.37 416.62 441.54 421.38 C 441.51 421.67 441.46 422.26 441.43 422.55 C 435.80 428.56 429.17 433.56 422.74 438.68 C 415.09 444.99 406.32 449.70 397.96 454.96 C 390.57 459.55 382.77 463.44 374.67 466.60 C 372.34 461.95 370.64 457.02 369.43 451.97 C 377.85 448.21 386.29 444.24 393.68 438.65 C 401.12 433.58 408.04 427.77 414.65 421.66 Z" />
<path fill="#958c6e" opacity="1.00" d=" M 447.32 427.10 C 451.68 430.42 456.01 433.86 459.74 437.91 L 459.06 438.66 C 454.62 444.17 448.86 448.39 442.58 451.58 C 430.16 458.05 417.75 464.57 405.59 471.53 C 398.18 475.38 390.92 479.77 382.79 481.96 C 381.43 478.86 380.05 475.76 378.88 472.58 C 397.00 465.99 412.96 454.88 428.22 443.31 C 435.22 438.69 441.29 432.88 447.32 427.10 Z" />
<path fill="#958c6e" opacity="1.00" d=" M 486.28 467.38 C 492.53 463.24 498.05 458.15 503.92 453.51 C 507.07 458.48 511.03 462.81 514.94 467.17 C 512.62 472.10 508.11 475.51 504.46 479.42 C 496.10 487.14 487.85 495.20 477.97 501.00 C 470.49 505.44 461.94 507.40 453.72 509.95 C 444.31 512.59 435.25 516.43 425.68 518.49 C 419.20 519.73 412.64 520.68 406.03 520.61 C 404.97 518.38 403.87 516.18 402.78 513.98 C 413.94 509.55 424.92 504.67 435.97 499.95 C 446.64 495.36 456.02 488.35 465.37 481.56 C 472.21 476.65 479.26 472.03 486.28 467.38 Z" />
</g>
<g id="#fefdfbff">
</g>
<g id="#fefefcff">
</g>
<g id="#fefdfcff">
</g>
<g id="#d4d0c7ff">
<path fill="#d4d0c7" opacity="1.00" d=" M 492.23 177.80 C 493.19 180.21 494.23 182.60 495.24 185.00 C 494.52 184.90 493.09 184.69 492.37 184.58 C 492.35 182.32 492.34 180.05 492.23 177.80 Z" />
</g>
<g id="#fdfdfcff">
</g>
<g id="#f2f1f0ff">
</g>
<g id="#e6e3ddff">
<path fill="#e6e3dd" opacity="1.00" d=" M 417.16 215.82 C 418.95 217.73 420.61 219.78 422.18 221.88 C 420.41 222.25 418.65 222.61 416.89 222.98 C 416.97 220.59 417.06 218.20 417.16 215.82 Z" />
</g>
<g id="#fdfcfaff">
</g>
<g id="#58532fff">
<path fill="#58532f" opacity="1.00" d=" M 44.67 251.69 C 50.09 250.62 55.62 251.87 61.08 251.74 C 65.03 251.87 69.00 251.47 72.94 251.80 C 75.61 252.38 77.20 255.30 76.23 257.87 C 74.70 260.62 70.83 259.96 68.78 262.04 C 68.32 275.27 68.50 288.53 68.21 301.77 L 68.24 302.62 C 72.77 303.21 77.35 303.00 81.91 302.83 C 83.06 297.92 83.53 292.84 85.21 288.08 C 86.24 284.93 90.34 286.44 92.80 286.14 C 93.15 293.04 92.19 299.94 90.49 306.62 C 90.01 308.21 89.56 309.99 88.21 311.10 C 86.63 311.61 84.95 311.64 83.31 311.70 C 74.26 311.18 65.19 311.32 56.14 311.44 C 52.66 311.52 49.12 311.96 45.68 311.25 C 42.72 310.75 41.88 306.11 44.37 304.55 C 46.26 303.22 48.42 302.36 50.50 301.38 C 50.54 287.87 50.74 274.35 50.55 260.83 C 48.08 259.89 45.42 259.17 43.32 257.48 C 42.96 255.53 42.80 252.94 44.67 251.69 M 44.50 254.96 C 46.60 257.64 50.00 258.08 53.14 258.51 C 54.00 273.86 52.43 289.21 52.56 304.57 C 49.67 305.16 46.72 305.92 44.47 307.95 C 47.25 308.67 50.12 308.93 52.99 308.83 C 64.31 308.52 75.62 308.78 86.94 308.82 C 88.13 303.58 89.26 298.31 89.95 292.98 C 90.31 291.18 89.60 289.46 89.13 287.78 C 85.23 292.72 85.95 299.46 84.00 305.20 C 77.74 305.23 71.50 304.74 65.24 304.65 C 65.33 289.49 65.43 274.33 66.37 259.20 C 68.77 258.61 71.22 258.13 73.44 257.01 C 73.34 256.52 73.15 255.54 73.05 255.05 C 68.40 254.35 63.67 254.85 58.99 254.71 C 54.16 254.71 49.26 253.69 44.50 254.96 Z" />
</g>
<g id="#5a542fff">
<path fill="#5a542f" opacity="1.00" d=" M 104.47 257.87 C 104.02 255.81 104.52 253.73 105.19 251.79 C 110.09 251.73 115.05 251.31 119.92 252.09 C 122.46 252.36 123.74 254.85 125.09 256.70 C 126.41 258.80 127.40 261.07 128.52 263.28 C 132.26 270.33 136.30 277.22 140.20 284.19 C 140.28 283.76 140.44 282.89 140.51 282.45 C 143.05 275.37 145.63 268.29 148.43 261.31 C 149.54 258.41 151.42 255.93 153.37 253.55 C 158.91 253.72 164.43 253.15 169.94 252.64 C 172.74 251.90 175.03 253.43 176.69 255.57 C 175.74 257.21 174.77 258.86 173.56 260.33 C 172.58 261.22 171.62 262.15 170.69 263.10 C 170.44 264.99 170.71 266.90 170.97 268.79 C 172.65 279.37 174.43 289.94 175.46 300.62 C 177.80 301.26 180.14 301.91 182.49 302.57 C 182.81 304.12 183.15 305.68 183.36 307.26 C 177.20 312.57 168.58 308.90 161.34 310.77 C 157.63 311.03 151.56 313.64 149.93 308.73 C 148.77 303.67 157.40 303.17 156.35 298.05 C 156.02 290.61 155.09 283.15 153.09 275.96 C 150.94 279.77 149.27 283.82 147.97 288.00 C 146.18 293.70 143.63 299.14 141.96 304.89 C 141.19 307.71 139.87 310.32 138.31 312.79 C 132.66 311.13 130.35 305.50 127.80 300.79 C 125.92 296.44 123.88 292.15 121.93 287.83 C 121.09 286.19 120.12 284.62 119.13 283.07 C 117.37 288.73 116.75 294.66 116.66 300.57 C 117.85 301.11 119.02 301.67 120.20 302.25 C 122.14 303.25 124.08 304.66 124.49 306.97 C 123.99 308.88 122.27 310.05 120.90 311.32 C 115.77 310.68 110.60 310.73 105.44 310.78 C 103.63 310.71 101.69 310.40 100.52 308.85 C 100.21 307.31 100.22 305.72 100.46 304.17 C 101.93 303.14 103.62 302.51 105.30 301.89 C 105.78 301.72 106.75 301.37 107.24 301.19 C 108.32 287.68 110.50 274.31 112.56 260.92 C 111.43 260.63 110.30 260.33 109.17 260.02 C 107.52 259.51 105.86 258.92 104.47 257.87 M 106.56 254.25 C 107.18 258.77 112.47 258.04 115.82 259.07 C 112.82 273.83 110.90 288.78 109.67 303.79 C 107.53 304.29 105.39 304.76 103.26 305.26 C 103.19 305.98 103.07 307.41 103.01 308.13 C 108.99 307.99 114.97 308.11 120.92 308.69 C 120.92 307.58 120.92 306.48 120.91 305.39 C 118.50 304.88 116.08 304.41 113.67 303.95 C 114.02 294.00 115.06 284.03 116.92 274.25 C 118.70 276.83 120.33 279.51 121.69 282.33 C 125.44 290.19 129.62 297.82 133.43 305.65 C 134.16 307.50 135.78 308.61 137.54 309.38 C 140.87 300.90 143.51 292.18 146.61 283.62 C 148.89 277.48 150.66 271.08 153.97 265.37 C 157.32 278.03 158.06 291.21 159.41 304.19 C 157.08 304.92 154.75 305.63 152.41 306.35 C 152.36 307.00 152.25 308.29 152.19 308.93 C 158.84 308.99 165.39 307.59 172.03 307.65 C 174.48 307.60 176.95 307.71 179.39 307.35 C 179.89 306.36 180.29 305.34 180.60 304.28 C 177.92 303.95 175.23 303.68 172.54 303.44 C 171.43 289.01 169.01 274.75 167.15 260.41 C 169.46 259.47 172.59 259.39 173.77 256.83 C 173.32 256.59 172.41 256.12 171.96 255.89 C 165.72 255.16 159.45 256.56 153.24 257.20 C 147.75 267.55 145.05 279.07 140.15 289.68 C 133.04 278.55 127.53 266.49 120.84 255.12 C 116.09 254.65 111.33 254.26 106.56 254.25 Z" />
<path fill="#5a542f" opacity="1.00" d=" M 268.96 350.81 C 270.92 343.84 278.83 341.28 285.28 340.69 C 288.65 341.49 291.96 342.50 295.15 343.88 C 297.33 346.49 299.42 349.37 300.17 352.76 C 300.80 355.86 300.52 359.03 300.41 362.16 C 298.34 362.80 296.33 363.64 294.24 364.22 C 290.01 364.40 285.77 364.33 281.53 364.48 C 282.48 366.46 283.17 368.67 284.76 370.26 C 288.10 371.79 291.45 369.45 294.30 367.89 C 295.71 368.07 297.12 368.29 298.53 368.53 C 298.36 370.40 298.81 372.74 297.09 374.05 C 292.41 378.05 285.61 378.44 279.86 377.04 C 274.29 375.73 270.31 371.04 268.02 366.03 C 265.81 361.13 267.54 355.67 268.96 350.81 M 272.17 348.17 C 267.27 354.19 267.71 363.61 272.39 369.63 C 278.05 377.05 290.94 378.45 297.27 371.21 C 296.95 370.73 296.31 369.76 295.99 369.28 C 292.51 371.11 288.24 374.18 284.31 371.76 C 281.10 370.08 280.05 366.46 279.42 363.17 C 285.34 363.18 291.74 364.08 297.19 361.22 C 299.47 360.16 298.72 357.14 298.80 355.11 C 298.72 350.07 295.51 344.99 290.48 343.66 C 284.21 342.04 276.53 342.93 272.17 348.17 Z" />
</g>
<g id="#5a5330ff">
<path fill="#5a5330" opacity="1.00" d=" M 445.69 252.98 C 453.90 251.66 462.17 253.04 470.41 253.26 C 470.73 255.35 471.06 257.45 471.41 259.54 C 471.42 267.60 471.18 275.67 471.53 283.73 C 471.32 289.57 471.22 295.43 471.56 301.27 C 472.61 301.82 473.66 302.38 474.71 302.94 C 475.77 303.51 476.84 304.09 477.91 304.69 C 477.83 307.44 476.51 309.79 474.12 311.19 C 467.99 311.06 461.88 311.66 455.76 311.89 C 454.75 311.06 453.77 310.23 452.79 309.39 C 451.82 309.87 450.87 310.36 449.90 310.81 C 445.14 313.21 439.72 312.56 434.77 311.20 C 432.81 309.20 430.82 307.22 428.88 305.20 C 426.28 298.75 425.14 291.74 425.88 284.81 C 426.17 283.48 426.53 282.17 426.96 280.89 C 429.38 274.87 434.29 270.14 440.28 267.72 C 442.93 267.65 445.58 267.71 448.23 267.91 C 449.68 268.05 451.13 268.20 452.59 268.37 C 452.75 266.45 453.05 264.51 452.81 262.59 C 450.74 261.08 448.30 260.14 446.36 258.46 C 445.92 256.66 445.85 254.81 445.69 252.98 M 448.44 255.31 C 448.37 255.99 448.25 257.34 448.18 258.01 C 450.51 258.51 452.84 258.97 455.18 259.43 C 455.55 263.97 455.55 268.54 455.25 273.09 C 448.76 270.58 440.69 268.98 434.91 273.97 C 427.13 281.17 425.24 294.24 430.70 303.35 C 433.98 308.87 441.17 311.33 447.17 309.10 C 450.03 307.89 452.38 305.80 454.86 303.98 C 455.31 305.91 455.76 307.85 456.23 309.78 C 462.42 308.85 468.68 308.70 474.90 308.04 C 474.59 307.01 474.29 305.99 473.99 304.97 C 472.11 304.81 470.23 304.65 468.35 304.51 C 468.17 288.07 468.76 271.62 468.05 255.20 C 461.52 255.56 454.97 255.34 448.44 255.31 Z" />
</g>
<g id="#010100ff">
<path fill="#010100" opacity="1.00" d=" M 44.50 254.96 C 49.26 253.69 54.16 254.71 58.99 254.71 C 63.67 254.85 68.40 254.35 73.05 255.05 C 73.15 255.54 73.34 256.52 73.44 257.01 C 71.22 258.13 68.77 258.61 66.37 259.20 C 65.43 274.33 65.33 289.49 65.24 304.65 C 71.50 304.74 77.74 305.23 84.00 305.20 C 85.95 299.46 85.23 292.72 89.13 287.78 C 89.60 289.46 90.31 291.18 89.95 292.98 C 89.26 298.31 88.13 303.58 86.94 308.82 C 75.62 308.78 64.31 308.52 52.99 308.83 C 50.12 308.93 47.25 308.67 44.47 307.95 C 46.72 305.92 49.67 305.16 52.56 304.57 C 52.43 289.21 54.00 273.86 53.14 258.51 C 50.00 258.08 46.60 257.64 44.50 254.96 Z" />
</g>
<g id="#010101ff">
<path fill="#010101" opacity="1.00" d=" M 106.56 254.25 C 111.33 254.26 116.09 254.65 120.84 255.12 C 127.53 266.49 133.04 278.55 140.15 289.68 C 145.05 279.07 147.75 267.55 153.24 257.20 C 159.45 256.56 165.72 255.16 171.96 255.89 C 172.41 256.12 173.32 256.59 173.77 256.83 C 172.59 259.39 169.46 259.47 167.15 260.41 C 169.01 274.75 171.43 289.01 172.54 303.44 C 175.23 303.68 177.92 303.95 180.60 304.28 C 180.29 305.34 179.89 306.36 179.39 307.35 C 176.95 307.71 174.48 307.60 172.03 307.65 C 165.39 307.59 158.84 308.99 152.19 308.93 C 152.25 308.29 152.36 307.00 152.41 306.35 C 154.75 305.63 157.08 304.92 159.41 304.19 C 158.06 291.21 157.32 278.03 153.97 265.37 C 150.66 271.08 148.89 277.48 146.61 283.62 C 143.51 292.18 140.87 300.90 137.54 309.38 C 135.78 308.61 134.16 307.50 133.43 305.65 C 129.62 297.82 125.44 290.19 121.69 282.33 C 120.33 279.51 118.70 276.83 116.92 274.25 C 115.06 284.03 114.02 294.00 113.67 303.95 C 116.08 304.41 118.50 304.88 120.91 305.39 C 120.92 306.48 120.92 307.58 120.92 308.69 C 114.97 308.11 108.99 307.99 103.01 308.13 C 103.07 307.41 103.19 305.98 103.26 305.26 C 105.39 304.76 107.53 304.29 109.67 303.79 C 110.90 288.78 112.82 273.83 115.82 259.07 C 112.47 258.04 107.18 258.77 106.56 254.25 Z" />
</g>
<g id="#020101ff">
<path fill="#020101" opacity="1.00" d=" M 448.44 255.31 C 454.97 255.34 461.52 255.56 468.05 255.20 C 468.76 271.62 468.17 288.07 468.35 304.51 C 470.23 304.65 472.11 304.81 473.99 304.97 C 474.29 305.99 474.59 307.01 474.90 308.04 C 468.68 308.70 462.42 308.85 456.23 309.78 C 455.76 307.85 455.31 305.91 454.86 303.98 C 452.38 305.80 450.03 307.89 447.17 309.10 C 441.17 311.33 433.98 308.87 430.70 303.35 C 425.24 294.24 427.13 281.17 434.91 273.97 C 440.69 268.98 448.76 270.58 455.25 273.09 C 455.55 268.54 455.55 263.97 455.18 259.43 C 452.84 258.97 450.51 258.51 448.18 258.01 C 448.25 257.34 448.37 255.99 448.44 255.31 M 443.38 274.37 C 435.09 275.25 430.73 284.45 431.23 292.02 C 430.80 298.19 434.55 305.18 441.07 306.23 C 446.30 307.15 450.57 302.95 452.60 298.57 C 455.44 292.94 456.24 286.30 455.04 280.14 C 453.35 275.60 447.83 273.94 443.38 274.37 Z" />
<path fill="#020101" opacity="1.00" d=" M 289.09 270.94 C 294.57 270.62 300.05 270.62 305.54 270.53 C 305.61 271.51 305.69 272.49 305.77 273.48 C 303.53 274.03 301.28 274.58 299.04 275.15 C 296.88 287.73 294.28 300.75 286.50 311.24 C 280.53 307.86 278.39 300.92 274.27 295.83 C 271.63 300.44 270.07 305.75 266.54 309.80 C 266.17 309.98 265.42 310.35 265.05 310.54 C 261.21 307.30 259.12 302.58 256.84 298.23 C 253.23 291.08 251.30 283.27 249.65 275.48 C 248.21 274.85 246.77 274.22 245.34 273.59 C 245.29 272.97 245.18 271.72 245.12 271.10 C 251.42 270.63 257.74 270.61 264.06 270.64 C 265.78 270.41 267.23 271.34 268.19 272.71 C 266.28 273.55 264.35 274.34 262.42 275.13 C 263.98 282.23 265.60 289.59 269.89 295.61 C 272.05 291.38 273.92 286.97 274.90 282.31 C 275.55 279.16 276.38 276.03 277.89 273.16 C 282.68 280.37 284.41 289.18 289.56 296.24 C 293.44 289.97 293.98 282.36 294.99 275.23 C 293.10 274.67 291.20 274.12 289.31 273.58 C 289.25 272.92 289.15 271.60 289.09 270.94 Z" />
<path fill="#020101" opacity="1.00" d=" M 137.20 345.89 C 139.28 343.75 142.54 344.42 145.23 344.15 C 146.42 344.15 147.62 344.18 148.81 344.22 C 150.60 344.29 152.38 344.36 154.17 344.43 C 154.73 353.04 154.08 361.67 154.52 370.28 C 156.56 371.51 158.57 372.77 160.54 374.11 C 152.88 374.69 145.19 374.49 137.52 374.37 C 139.45 372.92 141.43 371.54 143.43 370.20 C 143.74 363.03 143.69 355.85 143.51 348.68 C 141.37 347.82 139.23 346.98 137.20 345.89 Z" />
<path fill="#020101" opacity="1.00" d=" M 332.09 347.40 C 334.60 345.34 337.57 343.48 340.98 344.14 C 344.87 343.98 348.70 347.04 348.75 351.06 C 348.80 353.40 349.19 356.43 347.13 358.07 C 344.22 359.67 339.39 359.20 338.49 355.43 C 337.33 351.85 341.01 349.47 342.99 347.09 C 340.08 347.43 336.32 346.55 334.39 349.37 C 329.75 355.29 331.71 363.33 331.49 370.26 C 333.55 371.12 336.06 371.77 336.83 374.18 C 332.33 373.95 327.82 373.21 323.31 373.66 C 320.53 373.93 317.70 374.15 314.99 373.29 C 316.82 372.21 318.70 371.23 320.61 370.30 C 321.71 362.97 320.76 355.59 320.70 348.23 C 318.99 347.89 317.28 347.57 315.58 347.26 C 315.44 346.65 315.18 345.44 315.05 344.83 C 319.66 344.62 324.32 344.23 328.93 344.75 C 330.42 344.86 331.05 346.52 332.09 347.40 Z" />
</g>
<g id="#948d70ff">
<path fill="#948d70" opacity="1.00" d=" M 109.17 260.02 C 110.30 260.33 111.43 260.63 112.56 260.92 C 110.50 274.31 108.32 287.68 107.24 301.19 C 106.75 301.37 105.78 301.72 105.30 301.89 C 105.96 295.26 106.25 288.61 106.40 281.95 C 106.56 274.56 108.20 267.32 109.17 260.02 Z" />
</g>
<g id="#fefdfaff">
</g>
<g id="#fbf9f3ff">
</g>
<g id="#5b5430ff">
<path fill="#5b5430" opacity="1.00" d=" M 242.36 273.57 C 241.43 270.75 244.07 267.74 246.97 267.97 C 253.31 267.89 259.68 268.28 265.98 267.26 C 267.65 267.89 269.73 268.33 270.49 270.18 C 269.31 273.06 266.76 275.13 265.59 277.97 C 265.85 281.90 268.08 285.32 269.94 288.68 C 272.32 283.53 273.58 277.94 273.59 272.27 C 274.49 271.71 275.39 271.17 276.32 270.65 C 278.16 271.36 280.70 271.32 281.76 273.27 C 283.59 276.42 284.30 280.06 285.58 283.44 C 286.61 285.27 287.73 287.04 288.81 288.84 C 289.01 289.20 289.40 289.91 289.60 290.26 C 291.11 286.87 293.14 283.28 292.49 279.44 C 291.35 277.06 288.79 275.75 287.18 273.71 C 285.42 272.06 286.77 268.36 289.20 268.28 C 294.68 267.46 300.34 267.35 305.85 268.04 C 308.47 268.14 309.45 271.32 308.62 273.45 C 306.51 276.63 300.77 276.48 300.03 280.73 C 298.91 286.39 298.94 292.32 296.74 297.74 C 294.73 302.78 292.66 307.99 289.03 312.11 C 287.70 313.88 285.05 314.15 283.42 312.63 C 279.59 309.29 277.42 304.55 274.38 300.57 C 273.54 302.41 272.74 304.27 271.89 306.11 C 271.33 307.14 270.77 308.17 270.19 309.19 C 268.69 311.21 266.18 313.77 263.44 312.64 C 261.19 311.19 259.82 308.79 258.41 306.60 C 253.35 298.43 251.46 288.89 247.95 280.06 C 246.90 277.28 243.97 275.94 242.36 273.57 M 289.09 270.94 C 289.15 271.60 289.25 272.92 289.31 273.58 C 291.20 274.12 293.10 274.67 294.99 275.23 C 293.98 282.36 293.44 289.97 289.56 296.24 C 284.41 289.18 282.68 280.37 277.89 273.16 C 276.38 276.03 275.55 279.16 274.90 282.31 C 273.92 286.97 272.05 291.38 269.89 295.61 C 265.60 289.59 263.98 282.23 262.42 275.13 C 264.35 274.34 266.28 273.55 268.19 272.71 C 267.23 271.34 265.78 270.41 264.06 270.64 C 257.74 270.61 251.42 270.63 245.12 271.10 C 245.18 271.72 245.29 272.97 245.34 273.59 C 246.77 274.22 248.21 274.85 249.65 275.48 C 251.30 283.27 253.23 291.08 256.84 298.23 C 259.12 302.58 261.21 307.30 265.05 310.54 C 265.42 310.35 266.17 309.98 266.54 309.80 C 270.07 305.75 271.63 300.44 274.27 295.83 C 278.39 300.92 280.53 307.86 286.50 311.24 C 294.28 300.75 296.88 287.73 299.04 275.15 C 301.28 274.58 303.53 274.03 305.77 273.48 C 305.69 272.49 305.61 271.51 305.54 270.53 C 300.05 270.62 294.57 270.62 289.09 270.94 Z" />
<path fill="#5b5430" opacity="1.00" d=" M 500.19 268.80 C 505.00 267.78 510.05 267.71 514.83 268.95 C 516.69 269.69 518.50 270.59 520.26 271.57 C 522.83 274.46 525.51 277.49 526.67 281.26 C 528.10 285.29 527.13 289.54 526.17 293.55 C 524.52 294.55 522.88 295.54 521.16 296.40 C 515.29 297.80 509.22 297.65 503.23 297.81 C 505.11 300.54 507.15 304.29 511.02 304.06 C 514.87 303.61 518.19 301.39 521.60 299.71 C 522.64 300.49 523.69 301.28 524.74 302.07 C 523.95 304.85 523.82 308.38 521.12 310.09 C 516.46 313.03 510.67 313.43 505.32 312.88 C 502.96 312.61 500.65 311.95 498.55 310.86 C 495.94 309.42 493.46 307.72 491.41 305.56 C 482.23 295.96 483.59 277.62 495.76 271.06 C 497.18 270.22 498.67 269.47 500.19 268.80 M 491.46 278.44 C 487.84 283.31 487.80 289.80 488.74 295.54 C 491.20 305.29 501.68 312.15 511.62 310.53 C 516.04 309.82 522.07 308.23 522.34 302.78 C 517.56 304.07 512.99 308.11 507.82 306.24 C 503.22 304.47 501.94 299.20 500.96 294.90 C 508.61 295.16 517.45 296.60 524.05 291.78 C 525.57 285.20 523.86 276.98 517.68 273.33 C 509.35 268.52 497.01 270.16 491.46 278.44 Z" />
</g>
<g id="#5b5330ff">
<path fill="#5b5330" opacity="1.00" d=" M 328.93 269.40 C 331.18 268.67 333.45 268.02 335.77 267.54 C 341.35 267.53 347.22 268.65 351.52 272.45 C 359.42 278.42 361.75 289.78 358.25 298.79 C 357.25 300.98 356.04 303.06 354.77 305.09 C 350.26 310.17 343.71 313.21 336.89 313.11 C 335.66 312.99 334.43 312.86 333.21 312.71 C 327.58 311.20 321.58 308.85 318.56 303.51 C 313.88 296.65 315.52 287.88 317.56 280.42 C 319.11 275.02 323.95 271.45 328.93 269.40 M 331.34 271.30 C 317.90 275.08 313.88 293.57 322.03 303.98 C 329.03 312.14 342.68 312.68 350.60 305.57 C 359.17 297.79 359.19 282.32 350.11 274.92 C 345.05 270.53 337.66 269.56 331.34 271.30 Z" />
</g>
<g id="#59542fff">
<path fill="#59542f" opacity="1.00" d=" M 374.76 276.67 C 377.46 271.67 383.05 269.35 388.19 267.70 C 391.25 267.56 394.33 267.59 397.39 267.85 C 401.27 269.20 405.22 270.85 408.17 273.82 C 416.90 282.26 417.12 297.66 408.61 306.34 C 406.75 308.02 404.76 309.56 402.65 310.91 C 397.47 313.10 391.69 313.25 386.20 312.41 C 384.17 311.70 382.19 310.86 380.29 309.88 C 376.05 307.03 372.42 302.98 371.12 297.94 C 368.85 290.71 371.37 283.10 374.76 276.67 M 391.37 270.46 C 383.77 270.67 376.60 275.79 374.00 282.94 C 370.89 291.51 373.20 302.69 381.39 307.61 C 390.60 313.54 404.41 310.35 409.54 300.51 C 413.48 292.95 412.68 282.63 406.61 276.37 C 402.75 272.25 396.97 270.16 391.37 270.46 Z" />
</g>
<g id="#5c5633ff">
<path fill="#5c5633" opacity="1.00" d=" M 565.23 270.22 C 570.33 268.56 576.77 269.25 579.94 274.06 C 585.27 281.91 583.46 291.90 582.71 300.76 C 584.86 302.15 587.26 303.30 588.92 305.31 C 589.11 307.08 588.96 308.86 588.91 310.64 C 579.26 311.83 569.59 309.87 559.93 310.80 C 554.23 310.99 548.51 311.16 542.85 311.93 C 540.51 312.20 537.02 312.45 536.31 309.50 C 534.39 304.38 542.67 303.85 542.30 299.07 C 542.68 292.55 543.02 286.02 543.23 279.49 C 540.50 278.42 535.51 278.71 535.30 274.79 C 534.63 271.94 537.84 270.84 539.61 269.38 C 546.58 271.89 554.15 268.87 561.07 271.43 C 562.48 271.15 563.82 270.58 565.23 270.22 M 559.34 276.59 C 558.52 275.39 557.74 274.15 556.78 273.08 C 550.59 273.16 544.40 273.06 538.21 272.90 C 538.23 273.65 538.26 275.15 538.28 275.89 C 540.55 276.42 542.81 276.92 545.09 277.41 C 545.55 286.54 545.54 295.70 545.09 304.83 C 543.11 305.37 541.14 305.92 539.18 306.47 C 539.15 307.55 539.13 308.64 539.11 309.74 C 546.95 308.60 554.83 308.93 562.71 309.14 C 562.06 307.06 560.42 305.81 558.49 305.01 C 558.36 298.77 557.99 292.49 558.64 286.27 C 559.92 280.77 564.95 275.49 570.94 275.90 C 573.87 276.08 575.69 278.83 576.39 281.42 C 578.54 288.92 576.66 296.75 575.32 304.22 C 572.54 304.75 569.78 305.30 567.02 305.87 C 567.38 306.84 567.72 307.82 568.23 308.74 C 574.46 308.85 580.73 308.74 586.95 308.20 C 586.55 307.22 586.15 306.25 585.76 305.27 C 583.56 304.98 581.37 304.69 579.17 304.43 C 579.97 296.24 581.79 287.78 579.46 279.69 C 578.40 275.82 575.15 272.21 570.90 272.19 C 566.50 271.57 562.69 274.11 559.34 276.59 M 565.67 279.07 C 563.54 282.06 561.16 285.16 560.78 288.96 C 560.52 292.98 560.58 297.03 560.69 301.06 C 560.55 303.05 562.40 304.23 564.11 304.61 C 567.20 303.74 570.21 302.55 573.42 302.11 C 573.51 299.88 573.68 297.64 573.43 295.42 C 574.55 290.39 575.45 284.72 573.02 279.93 C 571.37 277.40 568.06 278.73 565.67 279.07 Z" />
<path fill="#5c5633" opacity="1.00" d=" M 237.12 329.30 C 238.89 328.52 240.67 327.67 242.60 327.36 C 246.29 330.81 245.10 336.63 245.95 341.18 C 248.07 341.12 250.19 341.05 252.31 340.97 C 252.77 341.77 253.23 342.58 253.70 343.39 C 253.65 344.69 253.61 346.00 253.57 347.32 C 250.94 348.06 248.17 348.57 245.81 350.02 C 245.30 351.92 245.26 353.91 245.23 355.87 C 245.29 360.00 245.34 364.14 245.55 368.27 C 247.08 366.81 248.47 365.19 250.19 363.96 C 251.66 364.07 253.09 364.39 254.54 364.66 C 253.37 368.86 252.67 374.01 248.57 376.47 C 245.00 378.39 240.78 377.42 236.93 377.21 C 233.82 374.50 231.41 371.10 229.92 367.26 C 230.31 361.92 231.12 356.49 230.11 351.18 C 228.83 348.15 224.25 347.52 223.47 344.15 C 223.99 341.90 226.30 341.73 228.21 341.80 C 227.64 342.13 226.50 342.78 225.93 343.11 C 225.67 343.96 225.41 344.80 225.16 345.65 C 227.53 346.16 229.91 346.65 232.29 347.14 C 232.81 354.01 232.11 360.92 232.74 367.78 C 233.00 371.37 235.48 374.88 239.21 375.44 C 242.87 375.99 247.52 376.36 250.14 373.18 C 252.31 370.98 252.34 367.76 252.53 364.90 C 250.12 367.19 247.63 369.43 244.86 371.29 C 242.58 363.35 243.59 355.04 243.75 346.92 C 246.64 346.67 249.53 346.44 252.42 346.22 C 252.53 345.17 252.63 344.13 252.75 343.10 C 249.71 342.83 246.67 342.61 243.63 342.37 C 243.57 338.10 243.51 333.84 243.44 329.57 C 241.33 329.46 239.22 329.33 237.12 329.30 Z" />
</g>
<g id="#938b6bff">
<path fill="#938b6b" opacity="1.00" d=" M 270.49 270.18 C 270.93 271.24 271.34 272.32 271.74 273.41 C 272.35 273.02 272.97 272.64 273.59 272.27 C 273.58 277.94 272.32 283.53 269.94 288.68 C 268.08 285.32 265.85 281.90 265.59 277.97 C 266.76 275.13 269.31 273.06 270.49 270.18 Z" />
</g>
<g id="#040201ff">
<path fill="#040201" opacity="1.00" d=" M 391.37 270.46 C 396.97 270.16 402.75 272.25 406.61 276.37 C 412.68 282.63 413.48 292.95 409.54 300.51 C 404.41 310.35 390.60 313.54 381.39 307.61 C 373.20 302.69 370.89 291.51 374.00 282.94 C 376.60 275.79 383.77 270.67 391.37 270.46 M 389.37 278.24 C 386.47 282.61 387.59 288.13 387.41 293.06 C 387.11 297.65 389.84 301.57 392.71 304.86 C 395.98 304.68 399.13 303.80 402.06 302.33 L 401.81 301.44 C 402.72 300.40 403.63 299.36 404.54 298.32 C 404.64 299.26 404.85 301.13 404.95 302.06 C 404.89 296.53 407.99 290.93 405.49 285.57 C 404.20 282.14 402.00 277.84 397.91 277.52 C 398.78 277.42 400.53 277.22 401.40 277.12 C 397.84 274.74 392.07 274.45 389.37 278.24 Z" />
<path fill="#040201" opacity="1.00" d=" M 145.07 329.15 C 147.77 329.48 151.36 328.33 153.23 330.92 C 154.84 332.71 154.96 335.50 154.05 337.64 C 152.21 342.09 145.22 341.49 143.18 337.49 C 141.31 334.72 143.97 331.70 145.07 329.15 Z" />
<path fill="#040201" opacity="1.00" d=" M 272.17 348.17 C 276.53 342.93 284.21 342.04 290.48 343.66 C 295.51 344.99 298.72 350.07 298.80 355.11 C 298.72 357.14 299.47 360.16 297.19 361.22 C 291.74 364.08 285.34 363.18 279.42 363.17 C 280.05 366.46 281.10 370.08 284.31 371.76 C 288.24 374.18 292.51 371.11 295.99 369.28 C 296.31 369.76 296.95 370.73 297.27 371.21 C 290.94 378.45 278.05 377.05 272.39 369.63 C 267.71 363.61 267.27 354.19 272.17 348.17 M 283.71 347.76 C 280.57 350.33 280.58 354.83 280.02 358.52 C 284.82 360.10 289.89 359.45 294.73 358.42 C 294.62 355.80 294.76 353.15 294.19 350.58 C 292.12 346.91 287.32 346.84 283.71 347.76 Z" />
<path fill="#040201" opacity="1.00" d=" M 405.56 346.57 C 410.72 342.17 418.61 341.23 424.67 344.26 C 429.77 347.02 432.11 353.40 431.35 358.95 C 431.13 360.64 429.39 361.53 427.99 362.14 C 422.84 364.06 417.24 363.40 411.87 363.38 C 412.49 366.97 413.95 370.91 417.68 372.27 C 421.50 373.51 424.73 370.47 428.14 369.33 C 430.98 369.58 428.55 372.45 427.51 373.54 C 419.38 379.35 406.38 375.63 402.36 366.51 C 399.15 360.10 400.37 351.58 405.56 346.57 M 415.86 347.89 C 412.74 350.55 413.40 354.96 413.25 358.62 C 416.34 358.68 419.43 358.71 422.53 358.64 C 423.95 358.15 425.38 357.66 426.81 357.18 C 426.30 355.16 425.72 353.16 425.09 351.19 C 425.87 349.77 424.47 348.46 423.46 347.67 C 420.98 347.29 418.23 346.93 415.86 347.89 Z" />
</g>
<g id="#030201ff">
<path fill="#030201" opacity="1.00" d=" M 331.34 271.30 C 337.66 269.56 345.05 270.53 350.11 274.92 C 359.19 282.32 359.17 297.79 350.60 305.57 C 342.68 312.68 329.03 312.14 322.03 303.98 C 313.88 293.57 317.90 275.08 331.34 271.30 M 336.94 276.10 C 333.23 278.34 332.11 282.91 332.36 286.99 C 332.61 292.49 331.32 298.65 334.59 303.51 C 336.44 306.58 340.56 305.56 343.53 305.31 C 352.61 302.47 354.73 290.16 350.77 282.51 C 350.71 283.44 350.59 285.30 350.53 286.23 C 350.43 285.17 350.16 284.17 349.74 283.22 C 350.27 276.73 342.02 273.80 336.94 276.10 Z" />
<path fill="#030201" opacity="1.00" d=" M 237.12 329.30 C 239.22 329.33 241.33 329.46 243.44 329.57 C 243.51 333.84 243.57 338.10 243.63 342.37 C 246.67 342.61 249.71 342.83 252.75 343.10 C 252.63 344.13 252.53 345.17 252.42 346.22 C 249.53 346.44 246.64 346.67 243.75 346.92 C 243.59 355.04 242.58 363.35 244.86 371.29 C 247.63 369.43 250.12 367.19 252.53 364.90 C 252.34 367.76 252.31 370.98 250.14 373.18 C 247.52 376.36 242.87 375.99 239.21 375.44 C 235.48 374.88 233.00 371.37 232.74 367.78 C 232.11 360.92 232.81 354.01 232.29 347.14 C 229.91 346.65 227.53 346.16 225.16 345.65 C 225.41 344.80 225.67 343.96 225.93 343.11 C 226.50 342.78 227.64 342.13 228.21 341.80 C 229.40 341.80 230.60 341.82 231.80 341.85 C 232.22 338.38 232.41 334.89 232.51 331.41 C 234.04 330.69 235.56 329.96 237.12 329.30 Z" />
</g>
<g id="#030101ff">
<path fill="#030101" opacity="1.00" d=" M 491.46 278.44 C 497.01 270.16 509.35 268.52 517.68 273.33 C 523.86 276.98 525.57 285.20 524.05 291.78 C 517.45 296.60 508.61 295.16 500.96 294.90 C 501.94 299.20 503.22 304.47 507.82 306.24 C 512.99 308.11 517.56 304.07 522.34 302.78 C 522.07 308.23 516.04 309.82 511.62 310.53 C 501.68 312.15 491.20 305.29 488.74 295.54 C 487.80 289.80 487.84 283.31 491.46 278.44 M 505.56 276.62 C 501.54 280.10 501.07 285.70 501.08 290.67 C 507.80 291.99 515.00 292.22 521.30 289.10 C 520.77 285.79 520.67 282.19 518.64 279.36 C 516.04 275.17 509.45 272.79 505.56 276.62 Z" />
</g>
<g id="#020201ff">
<path fill="#020201" opacity="1.00" d=" M 559.34 276.59 C 562.69 274.11 566.50 271.57 570.90 272.19 C 575.15 272.21 578.40 275.82 579.46 279.69 C 581.79 287.78 579.97 296.24 579.17 304.43 C 581.37 304.69 583.56 304.98 585.76 305.27 C 586.15 306.25 586.55 307.22 586.95 308.20 C 580.73 308.74 574.46 308.85 568.23 308.74 C 567.72 307.82 567.38 306.84 567.02 305.87 C 569.78 305.30 572.54 304.75 575.32 304.22 C 576.66 296.75 578.54 288.92 576.39 281.42 C 575.69 278.83 573.87 276.08 570.94 275.90 C 564.95 275.49 559.92 280.77 558.64 286.27 C 557.99 292.49 558.36 298.77 558.49 305.01 C 560.42 305.81 562.06 307.06 562.71 309.14 C 554.83 308.93 546.95 308.60 539.11 309.74 C 539.13 308.64 539.15 307.55 539.18 306.47 C 541.14 305.92 543.11 305.37 545.09 304.83 C 545.54 295.70 545.55 286.54 545.09 277.41 C 542.81 276.92 540.55 276.42 538.28 275.89 C 538.26 275.15 538.23 273.65 538.21 272.90 C 544.40 273.06 550.59 273.16 556.78 273.08 C 557.74 274.15 558.52 275.39 559.34 276.59 Z" />
<path fill="#020201" opacity="1.00" d=" M 190.98 347.83 C 193.88 345.69 197.17 343.48 200.99 344.11 C 205.18 343.89 207.49 348.11 208.29 351.64 C 209.49 357.84 208.56 364.21 207.43 370.36 C 209.67 371.20 211.88 372.09 214.04 373.12 C 208.88 375.06 203.24 374.57 197.86 374.10 C 197.70 370.85 202.18 371.32 204.34 370.19 C 205.49 363.71 206.89 356.74 204.72 350.34 C 203.18 346.05 197.19 346.52 194.84 349.82 C 193.62 351.01 192.57 352.38 191.78 353.90 C 189.41 358.19 190.28 363.35 190.28 368.05 C 190.17 370.48 192.16 372.13 193.43 373.96 C 186.85 374.79 180.20 374.57 173.60 374.59 C 175.16 372.68 177.33 371.49 179.56 370.51 C 179.64 363.19 179.59 355.87 179.60 348.55 C 177.15 347.94 174.09 347.79 173.22 344.93 C 178.47 344.52 183.74 344.71 188.99 344.72 C 189.65 345.75 190.32 346.79 190.98 347.83 Z" />
<path fill="#020201" opacity="1.00" d=" M 363.55 344.54 C 369.15 344.35 374.75 344.32 380.35 344.70 C 380.56 353.36 380.22 362.03 380.37 370.69 C 382.11 371.27 383.86 371.85 385.60 372.43 C 385.65 372.99 385.76 374.10 385.81 374.66 C 378.56 374.29 371.31 374.31 364.06 374.64 C 364.21 374.14 364.52 373.14 364.68 372.63 C 366.30 371.95 367.93 371.27 369.56 370.60 C 369.68 363.16 369.64 355.73 369.61 348.30 C 367.50 347.78 365.39 347.27 363.30 346.74 C 363.36 346.19 363.49 345.09 363.55 344.54 Z" />
</g>
<g id="#58502dff">
<path fill="#58502d" opacity="1.00" d=" M 443.38 274.37 C 447.83 273.94 453.35 275.60 455.04 280.14 C 456.24 286.30 455.44 292.94 452.60 298.57 C 450.57 302.95 446.30 307.15 441.07 306.23 C 434.55 305.18 430.80 298.19 431.23 292.02 C 430.73 284.45 435.09 275.25 443.38 274.37 M 436.94 280.97 C 432.94 287.17 432.12 296.72 437.97 302.05 C 443.54 306.51 451.88 300.36 451.95 293.96 C 453.56 289.46 453.83 284.30 452.08 279.80 C 450.38 277.11 446.93 276.94 444.13 276.28 C 441.49 277.36 438.43 278.30 436.94 280.97 Z" />
</g>
<g id="#948b6dff">
<path fill="#948b6d" opacity="1.00" d=" M 336.94 276.10 C 342.02 273.80 350.27 276.73 349.74 283.22 C 347.35 279.99 343.82 277.96 340.00 276.92 C 343.45 282.06 347.14 287.03 350.51 292.23 C 350.53 290.22 350.54 288.22 350.53 286.23 C 350.59 285.30 350.71 283.44 350.77 282.51 C 354.73 290.16 352.61 302.47 343.53 305.31 C 340.56 305.56 336.44 306.58 334.59 303.51 C 331.32 298.65 332.61 292.49 332.36 286.99 C 332.11 282.91 333.23 278.34 336.94 276.10 Z" />
<path fill="#948b6d" opacity="1.00" d=" M 389.37 278.24 C 392.07 274.45 397.84 274.74 401.40 277.12 C 400.53 277.22 398.78 277.42 397.91 277.52 C 396.63 277.60 395.35 277.71 394.09 277.82 C 397.29 285.47 399.83 293.38 401.81 301.44 L 402.06 302.33 C 399.13 303.80 395.98 304.68 392.71 304.86 C 389.84 301.57 387.11 297.65 387.41 293.06 C 387.59 288.13 386.47 282.61 389.37 278.24 Z" />
</g>
<g id="#58512dff">
<path fill="#58512d" opacity="1.00" d=" M 505.56 276.62 C 509.45 272.79 516.04 275.17 518.64 279.36 C 520.67 282.19 520.77 285.79 521.30 289.10 C 515.00 292.22 507.80 291.99 501.08 290.67 C 501.07 285.70 501.54 280.10 505.56 276.62 M 507.35 278.35 C 504.57 280.83 503.88 284.71 502.74 288.09 C 508.22 289.24 513.84 288.77 519.32 287.89 C 519.02 284.98 519.01 281.54 516.51 279.54 C 514.08 277.47 510.10 276.11 507.35 278.35 Z" />
</g>
<g id="#ece8e3ff">
<path fill="#ece8e3" opacity="1.00" d=" M 600.92 275.16 C 603.24 280.24 603.59 285.89 604.95 291.25 C 608.24 305.05 604.17 319.38 606.74 333.23 C 606.39 336.17 604.88 338.94 605.22 341.97 C 605.49 346.13 605.75 350.39 604.28 354.39 C 602.94 349.36 602.07 344.17 602.30 338.95 C 602.27 331.85 604.89 325.10 605.20 318.04 C 605.47 310.05 605.70 301.98 604.18 294.10 C 602.96 287.81 601.76 281.51 600.92 275.16 Z" />
</g>
<g id="#5d5632ff">
<path fill="#5d5632" opacity="1.00" d=" M 192.84 278.91 C 196.87 275.27 202.31 277.02 207.10 277.45 C 210.01 277.67 212.93 277.67 215.85 277.58 C 220.98 277.33 226.09 276.78 231.20 276.23 C 232.41 278.72 232.77 281.47 232.64 284.22 C 230.44 284.79 228.26 285.41 226.03 285.82 C 221.37 286.33 216.68 286.35 212.00 286.38 C 209.01 286.36 206.03 286.36 203.05 286.27 C 199.37 285.97 195.82 284.86 192.52 283.24 C 192.59 281.79 192.70 280.35 192.84 278.91 M 195.00 279.71 C 195.13 280.44 195.39 281.88 195.52 282.61 C 202.93 284.00 210.51 284.38 218.04 283.95 C 222.10 283.65 226.45 283.90 230.16 281.91 C 230.13 281.46 230.08 280.56 230.05 280.12 C 226.21 278.51 221.97 280.14 217.99 280.24 C 210.30 281.30 202.68 278.88 195.00 279.71 Z" />
</g>
<g id="#fbf9f1ff">
</g>
<g id="#948c6dff">
<path fill="#948c6d" opacity="1.00" d=" M 436.94 280.97 C 438.43 278.30 441.49 277.36 444.13 276.28 C 446.43 283.38 448.17 290.64 449.55 297.98 C 450.36 296.65 451.19 295.32 451.95 293.96 C 451.88 300.36 443.54 306.51 437.97 302.05 C 432.12 296.72 432.94 287.17 436.94 280.97 Z" />
</g>
<g id="#958b6dff">
<path fill="#958b6d" opacity="1.00" d=" M 507.35 278.35 C 510.10 276.11 514.08 277.47 516.51 279.54 C 519.01 281.54 519.02 284.98 519.32 287.89 C 513.84 288.77 508.22 289.24 502.74 288.09 C 503.88 284.71 504.57 280.83 507.35 278.35 Z" />
</g>
<g id="#938c6eff">
<path fill="#938c6e" opacity="1.00" d=" M 565.67 279.07 C 568.06 278.73 571.37 277.40 573.02 279.93 C 575.45 284.72 574.55 290.39 573.43 295.42 C 571.48 289.75 570.79 282.92 565.67 279.07 Z" />
</g>
<g id="#080500ff">
<path fill="#080500" opacity="1.00" d=" M 195.00 279.71 C 202.68 278.88 210.30 281.30 217.99 280.24 C 221.97 280.14 226.21 278.51 230.05 280.12 C 230.08 280.56 230.13 281.46 230.16 281.91 C 226.45 283.90 222.10 283.65 218.04 283.95 C 210.51 284.38 202.93 284.00 195.52 282.61 C 195.39 281.88 195.13 280.44 195.00 279.71 Z" />
</g>
<g id="#fdfbf8ff">
</g>
<g id="#fcfbf7ff">
</g>
<g id="#f9f8f5ff">
</g>
<g id="#938b6cff">
<path fill="#938b6c" opacity="1.00" d=" M 119.13 283.07 C 120.12 284.62 121.09 286.19 121.93 287.83 C 121.48 287.71 120.59 287.46 120.14 287.34 C 120.26 292.31 120.36 297.28 120.20 302.25 C 119.02 301.67 117.85 301.11 116.66 300.57 C 116.75 294.66 117.37 288.73 119.13 283.07 Z" />
</g>
<g id="#969072ff">
<path fill="#969072" opacity="1.00" d=" M 471.53 283.73 C 473.42 289.98 473.53 296.55 474.71 302.94 C 473.66 302.38 472.61 301.82 471.56 301.27 C 471.22 295.43 471.32 289.57 471.53 283.73 Z" />
</g>
<g id="#fdfdfaff">
</g>
<g id="#faf9f6ff">
</g>
<g id="#958a69ff">
<path fill="#958a69" opacity="1.00" d=" M 503.23 297.81 C 509.22 297.65 515.29 297.80 521.16 296.40 C 521.30 297.50 521.45 298.60 521.60 299.71 C 518.19 301.39 514.87 303.61 511.02 304.06 C 507.15 304.29 505.11 300.54 503.23 297.81 Z" />
</g>
<g id="#f5f3f3ff">
</g>
<g id="#948c6eff">
<path fill="#948c6e" opacity="1.00" d=" M 434.77 311.20 C 439.72 312.56 445.14 313.21 449.90 310.81 C 449.83 316.06 449.76 321.32 449.30 326.56 C 448.78 332.00 447.88 337.47 448.55 342.94 C 447.55 343.10 446.56 343.27 445.57 343.45 C 445.30 344.89 445.03 346.33 444.76 347.77 C 445.23 347.83 446.15 347.95 446.62 348.02 C 448.58 348.26 450.55 348.46 452.53 348.66 C 452.37 355.68 452.53 362.71 452.38 369.73 C 449.99 370.66 447.74 371.95 446.56 374.34 C 454.55 374.69 462.55 374.42 470.55 374.60 C 468.88 376.22 467.02 377.83 466.32 380.15 C 462.64 390.53 458.41 400.87 452.02 409.91 C 445.34 406.74 439.24 402.33 432.01 400.42 C 437.25 390.86 443.35 381.58 446.15 370.94 C 450.32 364.80 451.00 357.21 450.43 350.00 C 449.47 349.87 447.54 349.61 446.57 349.48 C 444.52 356.68 442.96 364.07 439.95 370.97 C 435.17 381.57 429.64 391.82 422.99 401.37 C 416.60 401.74 410.18 401.52 403.89 400.29 C 406.41 391.89 413.15 385.80 417.81 378.61 C 415.10 378.15 412.10 376.55 409.43 377.46 C 404.11 382.19 400.67 388.60 397.37 394.80 C 394.23 389.67 392.96 383.72 390.61 378.25 C 391.40 376.63 392.50 375.19 393.49 373.69 C 395.65 370.37 398.26 367.02 398.57 362.93 C 398.86 359.52 398.96 356.09 399.70 352.75 C 399.53 358.88 398.45 366.09 402.87 371.09 C 406.77 376.02 413.39 377.43 419.35 377.67 C 423.64 377.87 428.65 376.61 430.88 372.60 C 432.39 369.91 429.15 368.17 427.68 366.41 C 427.63 365.95 427.53 365.05 427.48 364.60 C 424.94 364.81 422.40 365.03 419.88 365.34 C 424.03 363.90 428.95 364.11 432.55 361.44 C 434.04 357.84 432.51 353.81 432.18 350.08 C 434.70 337.29 434.79 324.19 434.77 311.20 Z" />
</g>
<g id="#5f5935ff">
<path fill="#5f5935" opacity="1.00" d=" M 367.55 332.53 C 368.84 328.54 373.67 328.33 377.07 327.37 C 378.95 329.60 381.93 331.66 381.67 334.95 C 382.03 338.55 378.59 340.62 376.23 342.68 C 377.74 342.65 379.26 342.63 380.78 342.63 C 383.70 351.08 381.69 360.09 382.32 368.81 C 383.80 369.53 385.27 370.27 386.75 371.00 C 387.02 370.57 387.56 369.70 387.84 369.27 C 387.49 371.51 387.43 373.79 387.29 376.06 C 385.66 376.44 384.01 376.81 382.34 376.87 C 378.17 376.64 373.99 376.44 369.82 376.63 C 367.31 376.56 364.20 377.26 362.55 374.83 C 363.14 372.82 364.40 371.11 365.82 369.61 C 366.23 369.35 367.04 368.85 367.45 368.59 C 368.29 363.20 368.84 357.48 366.96 352.25 C 365.46 349.55 362.78 347.80 360.58 345.72 C 363.15 342.70 367.04 342.20 370.78 342.39 C 368.88 339.51 366.12 336.20 367.55 332.53 M 372.49 329.58 C 367.68 331.28 368.18 339.61 373.46 340.32 C 378.63 341.69 381.72 334.84 379.00 330.99 C 377.36 329.26 374.69 329.06 372.49 329.58 M 363.55 344.54 C 363.49 345.09 363.36 346.19 363.30 346.74 C 365.39 347.27 367.50 347.78 369.61 348.30 C 369.64 355.73 369.68 363.16 369.56 370.60 C 367.93 371.27 366.30 371.95 364.68 372.63 C 364.52 373.14 364.21 374.14 364.06 374.64 C 371.31 374.31 378.56 374.29 385.81 374.66 C 385.76 374.10 385.65 372.99 385.60 372.43 C 383.86 371.85 382.11 371.27 380.37 370.69 C 380.22 362.03 380.56 353.36 380.35 344.70 C 374.75 344.32 369.15 344.35 363.55 344.54 Z" />
</g>
<g id="#050201ff">
<path fill="#050201" opacity="1.00" d=" M 372.49 329.58 C 374.69 329.06 377.36 329.26 379.00 330.99 C 381.72 334.84 378.63 341.69 373.46 340.32 C 368.18 339.61 367.68 331.28 372.49 329.58 Z" />
</g>
<g id="#776f4dff">
<path fill="#776f4d" opacity="1.00" d=" M 406.72 343.49 C 412.54 340.04 419.75 340.01 425.85 342.77 C 428.37 344.81 430.46 347.33 432.18 350.08 C 432.51 353.81 434.04 357.84 432.55 361.44 C 428.95 364.11 424.03 363.90 419.88 365.34 C 417.58 365.60 416.68 367.97 415.49 369.61 C 417.58 369.87 419.72 370.66 421.84 370.21 C 424.00 369.31 425.79 367.74 427.68 366.41 C 429.15 368.17 432.39 369.91 430.88 372.60 C 428.65 376.61 423.64 377.87 419.35 377.67 C 413.39 377.43 406.77 376.02 402.87 371.09 C 398.45 366.09 399.53 358.88 399.70 352.75 C 400.69 348.84 403.74 345.99 406.72 343.49 M 405.56 346.57 C 400.37 351.58 399.15 360.10 402.36 366.51 C 406.38 375.63 419.38 379.35 427.51 373.54 C 428.55 372.45 430.98 369.58 428.14 369.33 C 424.73 370.47 421.50 373.51 417.68 372.27 C 413.95 370.91 412.49 366.97 411.87 363.38 C 417.24 363.40 422.84 364.06 427.99 362.14 C 429.39 361.53 431.13 360.64 431.35 358.95 C 432.11 353.40 429.77 347.02 424.67 344.26 C 418.61 341.23 410.72 342.17 405.56 346.57 Z" />
</g>
<g id="#625a36ff">
<path fill="#625a36" opacity="1.00" d=" M 135.69 345.11 C 137.33 341.14 142.47 341.88 145.23 344.15 C 142.54 344.42 139.28 343.75 137.20 345.89 C 139.23 346.98 141.37 347.82 143.51 348.68 C 143.69 355.85 143.74 363.03 143.43 370.20 C 141.43 371.54 139.45 372.92 137.52 374.37 C 145.19 374.49 152.88 374.69 160.54 374.11 C 158.57 372.77 156.56 371.51 154.52 370.28 C 154.08 361.67 154.73 353.04 154.17 344.43 C 152.38 344.36 150.60 344.29 148.81 344.22 C 150.93 342.92 154.26 341.16 155.78 344.26 C 157.34 351.99 155.55 359.94 156.42 367.73 C 157.33 370.56 162.84 370.93 161.65 374.63 C 160.85 377.24 157.84 376.30 155.82 376.29 C 150.28 375.68 144.75 376.94 139.21 376.64 C 137.15 376.77 135.62 374.39 136.47 372.55 C 137.89 370.85 139.80 369.62 141.05 367.78 C 141.79 362.90 141.57 357.90 141.32 352.98 C 141.40 349.22 135.16 349.09 135.69 345.11 Z" />
</g>
<g id="#5e5635ff">
<path fill="#5e5635" opacity="1.00" d=" M 196.38 343.19 C 199.28 342.88 202.66 341.74 205.22 343.75 C 208.81 346.38 210.32 350.98 210.50 355.28 C 210.81 359.30 209.73 363.37 210.49 367.36 C 211.91 369.12 213.74 370.51 215.15 372.29 C 215.75 374.34 213.73 375.45 212.32 376.41 C 208.82 376.46 205.31 376.33 201.81 376.31 C 192.04 376.55 182.28 375.76 172.53 376.49 C 172.41 375.14 172.28 373.80 172.16 372.47 C 173.88 371.56 175.60 370.65 177.28 369.67 C 177.74 364.90 177.30 360.02 175.67 355.50 C 174.49 351.51 171.85 348.01 171.50 343.78 C 177.55 342.69 183.72 342.98 189.81 343.52 C 192.00 343.68 194.20 343.49 196.38 343.19 M 190.98 347.83 C 190.32 346.79 189.65 345.75 188.99 344.72 C 183.74 344.71 178.47 344.52 173.22 344.93 C 174.09 347.79 177.15 347.94 179.60 348.55 C 179.59 355.87 179.64 363.19 179.56 370.51 C 177.33 371.49 175.16 372.68 173.60 374.59 C 180.20 374.57 186.85 374.79 193.43 373.96 C 192.16 372.13 190.17 370.48 190.28 368.05 C 190.28 363.35 189.41 358.19 191.78 353.90 C 191.59 359.34 192.16 364.78 192.21 370.22 C 195.71 370.96 199.27 370.51 202.71 369.71 C 202.88 369.15 203.23 368.02 203.40 367.45 L 203.36 366.32 C 204.04 361.16 204.40 355.63 202.28 350.75 C 200.70 348.15 197.18 348.76 194.84 349.82 C 197.19 346.52 203.18 346.05 204.72 350.34 C 206.89 356.74 205.49 363.71 204.34 370.19 C 202.18 371.32 197.70 370.85 197.86 374.10 C 203.24 374.57 208.88 375.06 214.04 373.12 C 211.88 372.09 209.67 371.20 207.43 370.36 C 208.56 364.21 209.49 357.84 208.29 351.64 C 207.49 348.11 205.18 343.89 200.99 344.11 C 197.17 343.48 193.88 345.69 190.98 347.83 Z" />
</g>
<g id="#5a5432ff">
<path fill="#5a5432" opacity="1.00" d=" M 313.29 342.90 C 314.68 342.62 316.08 342.36 317.48 342.11 C 326.96 343.86 336.63 341.41 346.06 343.40 C 347.10 344.64 348.15 345.88 349.17 347.15 C 352.78 352.21 350.16 361.50 343.00 360.89 C 337.57 361.27 337.39 354.52 336.10 350.83 C 331.25 354.33 333.04 360.96 333.64 365.99 C 333.85 369.26 338.54 369.80 338.76 373.00 C 339.22 375.12 336.85 376.60 334.96 376.37 C 330.33 376.07 325.69 375.21 321.06 376.04 C 318.59 376.17 314.89 377.36 313.63 374.37 C 312.46 371.31 316.01 369.48 317.82 367.70 L 318.42 367.20 C 318.66 364.89 318.69 362.56 318.77 360.25 C 318.74 357.38 319.09 354.42 318.29 351.64 C 316.91 350.03 315.14 348.83 313.78 347.22 C 313.38 345.81 313.40 344.34 313.29 342.90 M 332.09 347.40 C 331.05 346.52 330.42 344.86 328.93 344.75 C 324.32 344.23 319.66 344.62 315.05 344.83 C 315.18 345.44 315.44 346.65 315.58 347.26 C 317.28 347.57 318.99 347.89 320.70 348.23 C 320.76 355.59 321.71 362.97 320.61 370.30 C 318.70 371.23 316.82 372.21 314.99 373.29 C 317.70 374.15 320.53 373.93 323.31 373.66 C 327.82 373.21 332.33 373.95 336.83 374.18 C 336.06 371.77 333.55 371.12 331.49 370.26 C 331.71 363.33 329.75 355.29 334.39 349.37 C 336.32 346.55 340.08 347.43 342.99 347.09 C 341.01 349.47 337.33 351.85 338.49 355.43 C 339.39 359.20 344.22 359.67 347.13 358.07 C 349.19 356.43 348.80 353.40 348.75 351.06 C 348.70 347.04 344.87 343.98 340.98 344.14 C 337.57 343.48 334.60 345.34 332.09 347.40 Z" />
</g>
<g id="#020200ff">
<path fill="#020200" opacity="1.00" d=" M 446.69 343.83 C 452.57 343.57 458.52 343.39 464.24 345.03 C 467.81 345.08 471.16 343.11 474.79 343.21 C 477.26 344.62 480.36 345.95 481.21 348.97 C 482.02 352.19 481.12 355.49 480.57 358.67 C 477.25 359.23 472.76 360.77 470.62 357.14 C 467.62 353.57 471.74 349.82 473.57 346.81 C 471.65 347.47 469.65 347.97 467.89 349.01 C 465.63 350.56 464.57 353.36 464.49 356.02 C 464.24 360.77 464.47 365.53 464.42 370.29 C 466.41 370.59 468.40 370.93 470.39 371.28 C 470.45 372.38 470.50 373.49 470.55 374.60 C 462.55 374.42 454.55 374.69 446.56 374.34 C 447.74 371.95 449.99 370.66 452.38 369.73 C 452.53 362.71 452.37 355.68 452.53 348.66 C 450.55 348.46 448.58 348.26 446.62 348.02 C 446.63 346.62 446.65 345.22 446.69 343.83 Z" />
</g>
<g id="#928a69ff">
<path fill="#928a69" opacity="1.00" d=" M 283.71 347.76 C 287.32 346.84 292.12 346.91 294.19 350.58 C 294.76 353.15 294.62 355.80 294.73 358.42 C 289.89 359.45 284.82 360.10 280.02 358.52 C 280.58 354.83 280.57 350.33 283.71 347.76 Z" />
</g>
<g id="#948b6aff">
<path fill="#948b6a" opacity="1.00" d=" M 415.86 347.89 C 418.23 346.93 420.98 347.29 423.46 347.67 C 424.47 348.46 425.87 349.77 425.09 351.19 C 424.19 353.65 423.30 356.13 422.53 358.64 C 419.43 358.71 416.34 358.68 413.25 358.62 C 413.40 354.96 412.74 350.55 415.86 347.89 Z" />
</g>
<g id="#92896cff">
<path fill="#92896c" opacity="1.00" d=" M 194.84 349.82 C 197.18 348.76 200.70 348.15 202.28 350.75 C 204.40 355.63 204.04 361.16 203.36 366.32 C 203.56 360.36 201.89 354.60 199.72 349.12 C 197.22 350.51 193.92 351.80 193.44 355.02 C 192.87 360.35 195.68 365.23 197.90 369.86 C 199.75 369.09 201.58 368.30 203.40 367.45 C 203.23 368.02 202.88 369.15 202.71 369.71 C 199.27 370.51 195.71 370.96 192.21 370.22 C 192.16 364.78 191.59 359.34 191.78 353.90 C 192.57 352.38 193.62 351.01 194.84 349.82 Z" />
</g>
<g id="#fbf6e4ff">
</g>
<g id="#e4e0d0ff">
</g>
<g id="#fdfcf9ff">
</g>
<g id="#968b6dff">
<path fill="#968b6d" opacity="1.00" d=" M 281.53 364.48 C 285.77 364.33 290.01 364.40 294.24 364.22 C 290.52 365.32 286.63 365.60 282.78 365.93 C 286.58 366.82 290.41 367.50 294.30 367.89 C 291.45 369.45 288.10 371.79 284.76 370.26 C 283.17 368.67 282.48 366.46 281.53 364.48 Z" />
</g>
<g id="#dedbd2ff">
<path fill="#dedbd2" opacity="1.00" d=" M 155.02 516.08 C 157.68 517.78 160.45 519.31 163.28 520.71 C 160.66 520.76 158.04 520.80 155.42 520.82 C 155.29 519.23 155.16 517.65 155.02 516.08 Z" />
</g>
<g id="#efeeedff">
<path fill="#efeeed" opacity="1.00" d=" M 377.71 556.24 C 382.97 555.62 388.15 557.07 393.35 557.64 C 380.20 558.73 367.03 559.79 354.04 562.23 C 356.74 560.68 359.76 559.90 362.81 559.40 C 361.88 558.56 360.96 557.70 360.05 556.86 C 365.94 556.67 371.84 556.92 377.71 556.24 Z" />
</g>
</svg>
